<svg width="335" height="340" viewBox="0 0 335 340" fill="none" xmlns="http://www.w3.org/2000/svg">
<path fill-rule="evenodd" clip-rule="evenodd" d="M17.1661 157.719C18.4033 130.957 34.6004 84.4335 115.198 80.0282C212.381 74.7166 223.277 1.34707 260.133 69.8959C296.988 138.444 349.828 210.603 293.13 266.28C240.516 317.949 171.708 304.756 83.3072 259.884C18.8179 227.145 15.9289 184.48 17.1661 157.719Z" fill="#FDCC97"/>
<path d="M178.929 177.785C178.929 177.785 175.546 180.085 173.324 176.823L172.497 176.254C172.497 176.254 169.849 177.057 171.775 172.498C171.775 172.498 172.692 171.282 172.497 170.424C172.497 170.424 173.086 171.282 174.419 170.424C174.419 170.424 175.243 170.404 176.119 170.889L176.561 170.424C176.561 170.424 174.884 168.9 177.231 166.986C177.231 166.986 177.97 165.882 177.935 164.996C177.935 164.996 178.15 166.08 178.956 166.057C178.956 166.057 180.765 165.785 181.416 166.677C181.416 166.677 183.396 163.274 185.581 162.833H186.953C186.953 162.833 185.29 162.416 185.367 159.936L185.568 159.337C185.568 159.337 183.969 158.485 184.713 156.798C184.713 156.798 185.507 155.669 186.517 155.272C186.517 155.272 187.459 154.74 187.59 154.134C187.59 154.134 187.785 155.052 188.968 155.173C188.968 155.173 191.206 155.132 191.425 156.796C191.425 156.796 191.466 158.424 191.263 159.595C191.263 159.595 192.226 157.409 196.618 160.015C196.618 160.015 197.677 161.155 198.946 160.46C198.946 160.46 197.847 161.17 198.068 162.464C198.068 162.464 198.538 164.437 197.526 165.6C197.526 165.6 200.2 165.762 201.971 167.178C201.971 167.178 203.903 169.045 202.759 172.436L202.336 173.223C202.336 173.223 203.785 172.536 204.657 174.374C204.657 174.374 205.357 174.847 205.913 174.312C205.913 174.312 205.353 174.835 205.302 175.741C205.302 175.741 205.661 179.56 203.543 180.024C203.543 180.024 202.081 179.884 201.415 179.21L200.697 178.932C200.697 178.932 200.033 180.831 197.857 180.918C197.857 180.918 196.22 180.794 195.636 180.112L194.948 179.436C194.948 179.436 194.91 180.851 193.842 181.278C193.842 181.278 190.478 181.987 189.301 178.335L188.658 177.411L188.166 177.472C188.166 177.472 187.663 179.61 184.646 179.597C184.646 179.597 180.909 180.355 178.929 177.785Z" fill="white"/>
<path fill-rule="evenodd" clip-rule="evenodd" d="M169.544 186.425C171.327 185.904 172.885 184.318 172.964 182.437C173.022 181.035 172.035 179.517 170.785 179.197C168.761 178.677 163.883 177.863 160.498 177.717C161.45 175.106 162.401 172.494 163.353 169.883C164.164 170.668 164.67 169.986 164.657 169.943C164.138 168.214 164.227 165.544 166.351 164.587C169.876 162.999 171.847 157.827 169.192 154.99C168.315 154.053 167.132 153.531 165.952 153.009C165.542 152.829 165.134 152.648 164.738 152.451C163.2 151.683 161.666 150.352 161.663 148.613C164.408 148.249 166.743 146.164 167.926 143.625C169.11 141.087 169.263 138.159 168.896 135.376C168.883 135.276 168.869 135.174 168.855 135.072C168.631 133.411 168.383 131.567 169.462 130.334C171.737 127.735 170.598 123.693 169.34 120.461C169.034 119.675 168.515 118.744 167.684 118.804C167.2 118.84 166.816 119.222 166.505 119.6C164.863 121.598 163.935 124.187 163.931 126.787C162.019 126.851 160.971 125.821 159.643 124.424C158.655 123.386 156.945 123.915 154.938 124.535C154.03 124.816 153.062 125.115 152.071 125.297C150.861 123.385 152.238 122.282 152.337 124.102C153.445 122.061 153.7 119.562 153.027 117.335C152.394 116.7 151.156 116.934 150.791 117.757C146.949 110.453 139.286 105.367 131.149 104.72C131.389 105.703 130.481 106.667 129.5 106.858C128.519 107.048 127.524 106.693 126.587 106.344C130.507 107.936 136.388 118.408 134.732 127.906C133.373 135.705 128.343 143.23 126.882 145.414C126.784 145.561 126.701 145.684 126.638 145.782C126.368 145.401 122.727 146.028 122.306 146.784C116.807 156.649 120.362 170.634 129.879 176.572C129.92 176.598 129.975 176.632 130.041 176.673C131.087 177.319 135.082 179.791 135.967 181.208C135.986 181.238 136.003 181.284 136.023 181.338C136.118 181.6 136.286 182.06 137.184 182.021C136.782 184.653 136.713 188.002 139.042 189.23C140.131 189.804 141.432 189.691 142.653 189.563L150.528 188.741C152.361 188.549 153.357 186.182 152.748 184.418C152.139 182.654 150.464 181.496 148.765 180.771L152.863 178.794C152.006 180.796 154.495 182.517 156.519 183.257C157.848 183.743 159.177 184.229 160.507 184.715C161.158 184.953 161.809 185.191 162.46 185.429C164.743 186.263 167.213 187.106 169.544 186.425ZM229.632 233.168C231.141 232.385 232.649 231.603 234.282 231.161C236.94 230.438 233.246 230.584 233.246 230.584C235.142 229.015 243.195 231.304 243.307 235.659C243.349 237.283 241.305 240.198 238.032 242.175C236.7 242.981 235.237 243.372 233.783 243.762C232.589 244.082 231.402 244.4 230.298 244.943C228.469 245.844 226.821 247.842 226.013 248.904C225.043 250.18 225.951 250.665 226.732 251.081C227.397 251.435 227.969 251.74 227.201 252.444C221.529 257.642 224.293 269.113 225.239 273.035C225.386 273.646 225.489 274.074 225.509 274.267C225.526 271.847 227.946 270.091 230.298 269.679C231.686 269.438 233.096 269.513 234.509 269.588C235.488 269.639 236.469 269.691 237.445 269.638C241.8 269.395 245.976 266.893 248.289 263.144C248.332 264.284 248.975 265.385 249.941 265.972C251.643 260.014 254.56 254.414 258.453 249.631C258.723 249.298 259.001 248.965 259.279 248.63C261.161 246.371 263.101 244.042 263.475 241.153C263.816 238.508 262.645 235.725 260.549 234.114C260.502 234.078 260.455 234.041 260.407 234.005C259.83 233.566 259.188 233.077 259.188 232.363C259.188 231.712 260.248 231.481 260.488 231.872C260.502 231.967 260.514 232.064 260.523 232.162C260.549 232.041 260.534 231.946 260.488 231.872C259.889 227.853 254.911 226.213 250.847 225.715C246.689 225.209 241.587 224.178 240.407 220.103C237.551 210.238 236.398 199.868 237.017 189.606C237.076 188.622 237.151 187.636 237.227 186.651C237.475 183.419 237.722 180.184 237.402 176.965C237.019 173.12 235.836 169.411 234.66 165.736C233.899 163.358 233.105 160.919 231.541 158.987C229.976 157.056 227.837 156.122 225.045 156.312C224.624 155.863 224.551 155.028 224.672 154.273C224.851 153.166 225.34 152.43 225.794 152.486C226.561 152.581 225.183 150.695 224.344 150.942C223.807 151.101 223.3 151.5 222.921 151.799C222.556 152.087 222.308 152.282 222.264 152.081C221.976 150.774 221.504 149.106 220.645 149.654C217.154 151.882 216.137 156.802 216.608 157.017C216.39 156.947 214.295 156.293 214.08 156.747C213.174 158.654 211.304 160.017 209.489 161.339C207.066 163.105 204.743 164.798 204.951 167.617C205.099 169.635 206.713 171.278 208.526 172.122C208.71 172.208 209.306 172.331 210.099 172.495C212.873 173.069 218.069 174.145 216.608 175.874C214.776 178.04 205.34 180.995 200.454 182.525C199.369 182.864 198.509 183.133 198.006 183.308C195.58 182.106 198.808 188.015 208.586 194.267C212.148 196.545 209.182 202.719 207.289 206.66C207.248 206.746 207.207 206.831 207.167 206.914C206.622 208.05 206.004 209.187 205.383 210.329C203.141 214.452 200.86 218.649 201.854 223.091C202.065 224.034 202.421 224.934 202.776 225.833C203.175 226.842 203.574 227.85 203.767 228.916C204.723 234.182 199.291 239.506 194.137 238.36C192.321 237.954 191.02 240.667 192.052 242.234C193.085 243.803 195.327 244.076 197.094 243.486C198.337 243.074 199.434 242.34 200.531 241.606C200.994 241.297 201.456 240.988 201.93 240.703C203.527 239.737 205.462 239.021 207.227 239.616C206.699 240.156 206.09 240.615 205.483 241.072C204.565 241.764 203.652 242.452 203.029 243.412C202.011 244.982 202.534 247.745 204.339 247.881C190.581 247.215 211.895 248.775 206.192 247.911C207.23 247.044 208.64 247.33 210.027 247.611C210.456 247.698 210.883 247.785 211.296 247.837C213.044 248.056 215.355 246.335 214.251 244.943C212.354 242.547 214.273 238.795 216.96 237.377C218.568 236.526 220.353 236.174 222.143 235.821C223.345 235.584 224.548 235.346 225.702 234.958C227.065 234.499 228.349 233.833 229.632 233.168ZM204.435 247.887L204.339 247.881C204.37 247.884 204.403 247.887 204.435 247.887ZM216.626 157.022L216.608 157.017C216.613 157.019 216.62 157.021 216.626 157.022Z" fill="white"/>
<path fill-rule="evenodd" clip-rule="evenodd" d="M141.386 157.47C141.255 156.986 134.293 161.597 139.725 170.146C145.157 178.696 148.184 177.967 146.67 181.064C146.67 181.064 148.525 180.783 150.24 178.291C151.955 175.799 153.081 170.177 148.486 166.166C143.891 162.156 142.895 163.017 141.386 157.47Z" fill="#D6D6D9"/>
<mask id="mask0" mask-type="alpha" maskUnits="userSpaceOnUse" x="190" y="182" width="8" height="9">
<path fill-rule="evenodd" clip-rule="evenodd" d="M194.426 186.557C193.685 186.704 193.098 187.239 192.44 187.57C191.29 188.147 190.684 186.503 190.832 185.688C190.937 185.112 191.082 184.825 191.466 184.41C191.624 184.239 192.053 183.81 192.246 183.681C192.393 183.582 192.749 183.237 192.749 183.237C192.749 183.237 192.75 182.641 192.629 182.465C192.771 182.688 193.279 182.972 193.279 182.972C193.279 182.972 193.912 182.824 194.213 182.829C195.038 182.841 195.306 182.866 196.059 183.201C196.657 183.467 197.376 184.452 197.065 185.177C196.919 185.517 196.625 185.64 196.291 185.666C196.035 185.686 195.683 185.699 195.367 185.794C195.724 185.756 196.137 185.496 196.474 185.878C196.7 186.133 196.845 186.49 196.898 186.818C197.063 187.843 197.137 188.976 196.389 189.779C196.389 189.779 194.698 190.912 192.967 188.158" fill="white"/>
</mask>
<g mask="url(#mask0)">
<path d="M192.45 187.638C192.45 187.638 189.896 187.106 191.1 184.789C191.1 184.789 192.636 181.964 195.13 182.743C195.13 182.743 197.9 183.547 197.005 185.111C197.005 185.111 196.271 185.558 196.903 187.618C196.903 187.618 197.096 189.258 196.097 189.816C196.097 189.816 194.055 190.72 192.656 187.904L192.45 187.638Z" fill="white"/>
</g>
<path fill-rule="evenodd" clip-rule="evenodd" d="M187.383 153.92L186.772 154.644C185.561 155.031 184.498 155.726 184.119 156.588C183.812 157.286 183.891 158.112 184.639 159.02C184.834 159.233 185.056 159.407 185.298 159.545C185.264 159.579 185.239 159.623 185.228 159.674C185.228 159.674 184.971 160.305 185.236 161.199C185.333 161.528 185.528 161.869 185.819 162.226L185.809 162.228C185.052 162.403 184.389 162.738 183.829 163.152C183.742 162.982 183.566 162.866 183.363 162.867C183.075 162.867 182.842 163.101 182.842 163.389C182.884 163.432 182.904 163.467 182.924 163.502C182.954 163.553 182.984 163.604 183.081 163.679C183.105 163.698 183.124 163.718 183.139 163.744C182.927 163.954 182.735 164.171 182.565 164.388C182.11 164.965 181.799 165.524 181.616 165.897C181.327 165.66 180.982 165.465 180.604 165.328C180.08 165.138 179.493 165.077 178.913 165.159C178.866 165.124 178.774 165.054 178.715 165.004C178.541 164.856 178.393 164.699 178.393 164.699C178.24 164.546 178.019 164.485 177.81 164.538C177.6 164.591 177.435 164.75 177.373 164.957C177.373 164.957 177.142 165.732 176.987 166.051C176.983 166.06 176.975 166.077 176.975 166.077C176.975 166.077 176.998 166.05 177.007 166.039C176.725 166.382 176.492 166.694 176.315 166.99C175.884 167.709 175.711 168.29 175.694 168.754C175.673 169.354 175.87 169.772 176.104 170.054C175.834 169.928 175.542 169.831 175.243 169.78C174.825 169.709 174.396 169.74 173.984 169.891C173.766 169.972 173.577 169.971 173.421 169.942C173.149 169.892 172.997 169.717 172.997 169.717C172.866 169.581 172.674 169.523 172.49 169.563C172.306 169.604 172.156 169.738 172.095 169.917C172.095 169.917 171.796 170.699 171.546 171.296C171.452 171.52 171.366 171.716 171.308 171.819C171.115 172.18 170.944 172.591 170.836 173.061C170.745 173.454 170.699 173.888 170.701 174.362C170.752 175.934 171.416 176.423 172.177 176.451C172.404 176.46 172.65 176.427 172.9 176.353C172.975 176.506 173.091 176.717 173.252 176.959C173.414 177.203 173.623 177.46 173.882 177.712C174.068 177.892 174.281 178.062 174.52 178.203C174.868 178.41 175.266 178.558 175.685 178.634C176.529 178.787 177.452 178.655 178.412 177.992C178.432 177.978 178.453 177.963 178.474 177.948L178.474 177.948C178.516 177.918 178.558 177.888 178.603 177.861C178.668 177.821 178.735 177.784 178.808 177.751C178.834 177.739 178.861 177.727 178.888 177.715C179.127 178.088 179.579 178.621 180.384 179.061C181.147 179.477 182.25 179.796 183.807 179.792C185.83 179.724 187.142 179.199 187.846 178.512C188.745 177.635 188.811 176.501 188.123 175.493C187.719 174.903 187.167 174.451 186.539 174.12C186.653 173.862 186.816 173.371 186.774 172.74C186.752 172.409 186.654 172.051 186.467 171.672C186.293 171.316 186.026 170.948 185.633 170.6C185.347 170.347 184.983 170.119 184.55 169.896C184.747 169.836 184.977 169.745 185.23 169.624C185.398 169.544 185.586 169.44 185.804 169.311C185.606 169.707 185.516 169.992 185.516 169.992C185.461 170.127 185.526 170.282 185.662 170.337C185.797 170.392 185.952 170.327 186.007 170.191C186.007 170.191 186.365 169.519 187.002 168.908C187.482 168.448 188.136 168.044 188.968 168.076C189.469 168.095 190.021 168.293 190.664 168.709C191.138 169.016 191.663 169.426 192.219 170C192.62 170.396 192.912 170.778 193.111 171.141C193.064 171.156 193.019 171.179 192.977 171.208C192.74 171.373 192.682 171.698 192.846 171.935C192.846 171.935 193.049 172.172 193.452 172.44C193.43 172.909 193.238 173.32 192.933 173.655C192.344 174.302 191.401 174.714 190.578 174.636C190.234 174.604 189.929 174.455 189.69 174.252C189.547 174.131 189.464 173.963 189.393 173.779C189.255 173.526 188.938 173.432 188.685 173.57C188.433 173.708 188.339 174.026 188.477 174.279C188.809 174.744 189.257 175.045 189.802 175.17C189.715 175.212 189.629 175.26 189.541 175.312C188.81 175.758 188.564 176.289 188.59 176.9C188.614 177.478 188.947 178.171 189.378 178.982C190.124 180.352 191.524 181.105 192.722 181.226C193.99 181.354 194.997 180.815 194.916 179.762C194.911 179.616 194.789 179.502 194.643 179.506C194.497 179.511 194.382 179.633 194.387 179.779C194.381 180.121 194.175 180.333 193.879 180.443C193.461 180.596 192.879 180.54 192.291 180.325C191.507 180.039 190.719 179.435 190.305 178.52L190.229 178.357L190.229 178.357C189.958 177.778 189.73 177.291 189.732 176.877C189.732 176.654 189.869 176.494 190.142 176.341C190.934 175.885 191.638 176.117 192.3 176.606C193.127 177.215 193.897 178.19 194.63 179.118C194.834 179.376 195.035 179.63 195.233 179.872C196.122 180.939 197.236 181.16 198.257 180.962C199.547 180.712 200.654 179.772 200.9 179.202C200.944 179.098 200.995 178.969 201.045 178.819C201.06 178.938 201.116 179.052 201.211 179.138C201.907 179.637 202.495 179.854 203.006 179.925C203.528 179.998 203.971 179.922 204.361 179.694C205.19 179.208 205.742 178.076 205.912 176.935C205.945 176.714 205.946 176.401 205.935 176.082C205.922 175.732 205.89 175.376 205.866 175.146C206.039 174.944 206.318 174.61 206.42 174.437C206.726 173.918 206.303 173.594 206.111 173.528C205.943 173.478 205.765 173.509 205.626 173.606C205.61 173.592 205.583 173.626 205.559 173.661C205.546 173.674 205.533 173.686 205.522 173.7L205.516 173.706C205.497 173.711 205.476 173.715 205.455 173.717C205.442 173.7 205.43 173.685 205.418 173.671C205.092 173.101 204.603 172.648 203.985 172.448C203.785 172.383 203.571 172.344 203.345 172.336C203.618 171.964 203.798 171.528 203.894 171.062C204.026 170.421 203.99 169.723 203.857 169.089C203.699 168.334 203.403 167.667 203.085 167.262C202.507 166.53 200.738 165.355 199.08 165.294C198.853 165.285 198.63 165.301 198.411 165.336C198.555 165.096 198.665 164.84 198.743 164.577C198.874 164.134 198.922 163.668 198.904 163.217C198.874 162.496 198.693 161.82 198.525 161.323C198.533 161.35 198.537 161.404 198.51 161.398C198.124 161.311 199.38 160.465 199.38 160.465C199.506 160.392 199.549 160.23 199.477 160.103C199.404 159.977 199.242 159.933 199.115 160.006C199.115 160.006 198.401 160.335 197.993 160.707C197.706 160.969 197.619 161.291 197.659 161.545C197.727 161.923 197.77 162.413 197.763 162.935C197.757 163.355 197.697 163.792 197.564 164.21C197.358 164.861 196.938 165.463 196.051 165.798L194.512 165.337C194.35 165.279 194.168 165.322 194.049 165.446C194.049 165.446 193.964 165.553 193.809 165.713L193.788 165.719C193.149 165.907 192.678 166.314 192.362 166.779C192.224 166.847 192.078 166.907 191.927 166.958C191.713 167.031 191.485 167.074 191.253 167.083C190.931 167.095 190.62 167.007 190.3 166.883C190.124 166.845 189.95 166.901 189.829 167.016C189.551 166.956 189.287 166.932 189.038 166.937C189.569 166.411 189.928 165.918 190.141 165.472C190.434 164.857 190.454 164.303 190.299 163.833C190.168 163.437 189.888 163.089 189.472 162.808C189.535 162.758 189.599 162.706 189.664 162.652C189.919 162.439 190.166 162.186 190.415 161.93L190.415 161.93C190.512 161.831 190.609 161.731 190.707 161.633C190.776 161.565 190.848 161.506 190.922 161.446L190.922 161.446L190.934 161.436C190.99 161.39 191.043 161.345 191.095 161.299C191.107 161.325 191.12 161.35 191.132 161.376C191.438 161.98 191.936 162.526 192.368 162.999L192.41 163.045C192.491 163.134 192.563 163.223 192.633 163.309L192.633 163.309L192.679 163.365C193.018 163.781 193.328 164.042 193.504 164.138C193.778 164.226 194.073 164.076 194.161 163.801C194.249 163.527 194.099 163.232 193.825 163.144C193.745 163.135 193.611 163.116 193.453 163.029C193.257 162.92 193.025 162.785 192.812 162.58C192.518 162.297 192.27 161.908 192.061 161.516C191.694 160.827 191.506 160.052 192.057 159.499C192.254 159.296 192.538 159.253 192.849 159.242C193.188 159.229 193.559 159.296 193.947 159.376C194.541 159.5 195.16 159.678 195.714 159.864C196.717 160.201 197.498 160.518 197.498 160.518C197.623 160.594 197.786 160.554 197.862 160.429C197.937 160.303 197.898 160.14 197.773 160.065C197.773 160.065 197.08 159.502 196.112 158.956C195.829 158.796 195.523 158.646 195.205 158.511C194.885 158.375 194.555 158.259 194.226 158.175C193.832 158.075 193.439 158.023 193.075 158.027C192.315 158.035 191.666 158.271 191.252 158.789C190.91 159.232 190.775 159.713 190.799 160.204C190.698 160.251 190.612 160.33 190.557 160.436L190.54 160.508C190.493 160.711 190.447 160.908 190.335 161.097C190.298 161.159 190.257 161.219 190.209 161.273C190.099 161.394 189.968 161.494 189.838 161.593L189.822 161.605C189.38 161.94 188.904 162.195 188.534 162.367C188.3 162.291 188.045 162.229 187.77 162.182C187.667 162.106 187.559 162.028 187.453 161.954C187.108 161.713 186.789 161.522 186.789 161.522L186.862 161.578C186.512 161.32 186.281 161.056 186.125 160.802C185.777 160.237 185.745 159.786 185.745 159.786C185.748 159.775 185.75 159.764 185.75 159.753C186.18 159.909 186.653 159.972 187.138 159.955C187.626 159.937 188.12 159.849 188.576 159.721C189.676 159.415 190.536 158.935 190.536 158.935C190.67 158.877 190.731 158.721 190.673 158.587C190.615 158.453 190.459 158.391 190.325 158.45C190.325 158.45 188.657 158.984 187.154 158.873C186.542 158.828 185.951 158.682 185.579 158.215C185.078 157.651 185.055 157.155 185.358 156.731C185.72 156.226 186.38 155.808 187.108 155.508C187.226 155.459 187.405 155.325 187.563 155.123C187.633 155.033 187.704 154.932 187.77 154.833C187.905 154.95 188.084 155.077 188.326 155.192C188.599 155.328 188.914 155.35 189.245 155.373C189.523 155.393 189.814 155.414 190.102 155.504C190.214 155.539 190.322 155.595 190.426 155.668C190.693 155.854 190.884 156.18 191.058 156.688C191.187 156.946 191.5 157.051 191.758 156.923C192.015 156.794 192.12 156.48 191.992 156.222C191.572 155.599 191.166 155.275 190.75 155.09C190.589 155.018 190.432 154.962 190.275 154.918C190.039 154.852 189.804 154.823 189.576 154.796C189.242 154.755 188.926 154.717 188.658 154.564C188.502 154.472 188.387 154.376 188.3 154.289C188.149 154.138 188.115 154.022 188.115 154.022C188.071 153.868 187.94 153.754 187.782 153.732C187.624 153.71 187.467 153.784 187.383 153.92ZM205.392 173.936C205.302 173.908 205.242 173.85 205.252 173.755C205.27 173.575 205.336 173.579 205.418 173.671C205.427 173.687 205.436 173.702 205.445 173.718L205.455 173.717C205.49 173.765 205.527 173.825 205.564 173.891C205.466 173.883 205.413 173.901 205.392 173.936ZM205.464 173.95C205.439 173.947 205.415 173.942 205.392 173.936C205.371 173.97 205.382 174.02 205.41 174.076C205.401 174.127 205.405 174.179 205.422 174.231L205.425 174.241C205.449 174.227 205.471 174.213 205.492 174.2L205.506 174.218L205.52 174.235L205.538 174.225L205.535 174.214C205.53 174.202 205.527 174.19 205.524 174.178C205.695 174.059 205.757 173.959 205.593 173.913C205.597 173.907 205.602 173.901 205.606 173.895C205.591 173.893 205.577 173.892 205.564 173.891L205.573 173.908L205.565 173.906L205.508 173.896L205.505 173.899C205.489 173.916 205.476 173.933 205.464 173.95ZM205.566 173.953C205.551 173.979 205.54 174.004 205.533 174.031C205.515 174.08 205.512 174.129 205.524 174.178C205.513 174.185 205.503 174.192 205.492 174.2C205.459 174.158 205.43 174.115 205.41 174.076C205.413 174.063 205.416 174.049 205.42 174.036C205.43 174.007 205.444 173.979 205.464 173.95C205.496 173.954 205.531 173.955 205.566 173.953ZM205.583 173.927L205.596 173.951L205.584 173.952L205.566 173.953C205.571 173.944 205.577 173.936 205.583 173.927ZM205.583 173.927C205.586 173.922 205.589 173.917 205.593 173.913C205.587 173.911 205.58 173.909 205.573 173.908L205.583 173.927ZM205.559 173.661C205.549 173.676 205.539 173.691 205.532 173.703C205.598 173.686 205.647 173.656 205.635 173.621C205.633 173.614 205.63 173.609 205.626 173.606L205.612 173.616C205.601 173.625 205.591 173.633 205.58 173.642L205.559 173.661ZM183.42 164.785C182.742 165.381 182.274 166.006 182.047 166.338C182.278 166.636 182.429 166.971 182.472 167.325C182.534 167.833 182.394 168.381 181.927 168.919C181.73 169.147 181.464 169.363 181.15 169.606L181.118 169.631C180.923 169.783 180.715 169.945 180.474 170.114C180.257 170.265 180.028 170.417 179.765 170.575C179.498 170.684 179.194 170.555 179.086 170.288C178.978 170.02 179.107 169.716 179.373 169.607L179.406 169.6L179.406 169.6C179.663 169.54 179.894 169.486 180.11 169.408C180.369 169.315 180.602 169.224 180.795 169.099C181.588 168.586 181.816 167.961 181.708 167.456C181.625 167.072 181.31 166.765 180.921 166.542C180.388 166.237 179.677 166.129 179.015 166.315C178.862 166.356 178.641 166.333 178.4 166.219C178.36 166.2 178.317 166.176 178.274 166.15C178.256 166.199 178.238 166.246 178.22 166.291C178.114 166.557 177.992 166.768 177.914 166.851C177.482 167.292 177.176 167.682 176.961 168.028C176.76 168.351 176.631 168.619 176.58 168.862C176.4 169.71 177.027 170.084 177.027 170.084C177.161 170.142 177.223 170.298 177.166 170.432C177.128 170.522 177.046 170.579 176.956 170.591C177.605 171.114 177.86 171.615 177.872 172.064C177.881 172.372 177.771 172.66 177.58 172.954C177.57 172.968 177.56 172.983 177.55 172.998C177.597 172.995 177.645 173.005 177.688 173.029C177.688 173.029 178.345 173.319 178.917 174.446C179.202 175.008 179.455 175.787 179.592 176.855C179.609 176.893 179.622 176.934 179.63 176.975C179.771 177.196 180.249 177.823 181.351 178.214C181.964 178.432 182.758 178.581 183.789 178.555C185.423 178.561 186.51 178.24 187.104 177.713C187.638 177.239 187.688 176.598 187.33 176.004C186.827 175.166 185.952 174.639 185.022 174.343C183.94 173.999 182.786 173.958 182.014 174.11C181.388 174.275 180.952 174.244 180.571 174.111C180.067 173.935 179.662 173.524 179.051 172.901L178.962 172.811C178.779 172.589 178.81 172.259 179.032 172.075C179.254 171.892 179.583 171.923 179.766 172.145L179.782 172.168C179.778 172.14 179.776 172.111 179.776 172.081C179.776 172.081 179.831 171.824 179.98 171.462C180.025 171.352 180.077 171.236 180.133 171.113C180.165 171.043 180.197 170.971 180.23 170.897C180.474 170.344 180.805 169.747 181.504 169.47C181.937 169.298 182.503 169.25 183.254 169.43C183.237 169.236 183.33 169.041 183.508 168.935C183.679 168.862 183.841 168.811 184.055 168.887C184.077 168.895 184.101 168.906 184.128 168.918L184.128 168.918C184.219 168.961 184.34 169.018 184.538 169.012C184.743 169.006 185.016 168.969 185.376 168.817C185.519 168.756 185.673 168.679 185.838 168.579C186.298 168.302 186.839 167.869 187.518 167.271C188.682 166.225 189.266 165.351 189.344 164.651C189.391 164.237 189.171 163.938 188.794 163.728C188.678 163.664 188.549 163.608 188.408 163.561C188.365 163.587 188.342 163.601 188.342 163.601C188.174 163.68 187.978 163.666 187.824 163.565C187.824 163.565 187.68 163.489 187.476 163.377C187.424 163.372 187.371 163.368 187.317 163.364C186.746 163.304 186.225 163.365 185.748 163.49C185.231 163.626 184.765 163.838 184.35 164.093C184.353 164.096 184.355 164.098 184.358 164.1C184.42 164.154 184.481 164.207 184.531 164.27C184.563 164.312 184.586 164.358 184.606 164.404C184.644 164.489 184.662 164.561 184.679 164.64C184.745 164.957 184.723 165.1 184.723 165.1C184.817 165.213 184.801 165.38 184.689 165.474C184.577 165.567 184.41 165.551 184.313 165.435C184.313 165.435 184.203 165.423 183.945 165.312C183.872 165.28 183.813 165.248 183.734 165.195C183.682 165.16 183.634 165.122 183.588 165.072C183.547 165.027 183.509 164.976 183.48 164.919C183.458 164.875 183.438 164.831 183.42 164.785ZM174.045 176.437C173.857 176.3 173.694 176.177 173.564 176.076C173.972 175.868 174.357 175.613 174.649 175.417C174.765 175.339 174.9 175.254 174.968 175.211L174.98 175.213C175.125 175.236 175.26 175.137 175.282 174.992C175.305 174.904 175.273 174.839 175.248 174.787L175.247 174.784C175.209 174.704 175.129 174.658 175.012 174.639C174.947 174.628 174.815 174.658 174.632 174.73C174.533 174.77 174.41 174.825 174.27 174.887L174.27 174.887C174.015 175.001 173.704 175.14 173.379 175.257C172.997 175.395 172.598 175.497 172.27 175.446C172.125 175.423 172.029 175.323 171.965 175.152C171.896 174.964 171.88 174.711 171.897 174.378C171.909 174.001 171.966 173.658 172.041 173.346C172.128 172.985 172.241 172.665 172.385 172.385C172.464 172.223 172.595 171.882 172.72 171.512C172.793 171.298 172.865 171.075 172.928 170.878C173.034 170.91 173.15 170.936 173.277 170.949C173.58 170.98 173.943 170.954 174.347 170.766C174.667 170.616 175.017 170.596 175.353 170.658C175.744 170.731 176.118 170.893 176.417 171.085C177.109 171.546 177.386 171.959 177.207 172.36C177.088 172.624 176.794 172.83 176.426 173.018C176.214 173.126 175.972 173.203 175.709 173.286L175.709 173.286L175.709 173.286C175.448 173.409 175.336 173.72 175.459 173.981C175.582 174.242 175.893 174.354 176.153 174.231C176.632 173.933 177.019 173.623 177.303 173.309C177.317 173.386 177.365 173.457 177.439 173.496C177.439 173.496 177.892 173.808 178.242 174.743C178.439 175.271 178.593 175.986 178.617 176.951C178.568 177.035 178.517 177.114 178.452 177.187C178.396 177.25 178.339 177.308 178.273 177.353C177.686 177.751 177.071 177.756 176.55 177.697C176.172 177.654 175.843 177.501 175.525 177.344C175.297 177.231 175.084 177.101 174.878 176.975L174.876 176.974C174.57 176.786 174.285 176.611 174.045 176.437ZM200.854 173.46C200.626 173.444 200.409 173.399 200.203 173.331C199.626 173.14 199.144 172.796 198.793 172.449C198.696 172.352 198.608 172.257 198.531 172.168C198.254 172.533 197.92 172.827 197.576 173.028C198.098 173.12 198.459 173.264 198.459 173.264L198.483 173.276C199.253 173.674 199.821 174.12 200.237 174.583C200.331 174.201 200.523 173.818 200.854 173.46ZM200.207 175.812C200.226 175.919 200.25 176.022 200.278 176.119C200.332 176.305 200.395 176.47 200.454 176.606C200.617 177.579 200.284 178.435 200.092 178.832C199.896 179.238 199.028 179.821 198.086 179.962C197.405 180.064 196.672 179.896 196.112 179.167C195.916 178.914 195.718 178.649 195.517 178.38L195.517 178.379L195.517 178.379L195.517 178.379L195.517 178.379L195.517 178.379L195.517 178.379L195.517 178.379L195.517 178.379L195.517 178.379L195.517 178.379L195.517 178.379L195.516 178.379C195.069 177.779 194.607 177.159 194.12 176.62C193.542 175.981 192.926 175.451 192.281 175.153C192.195 175.114 192.11 175.078 192.023 175.046C192.567 174.872 193.081 174.59 193.489 174.198C193.864 173.837 194.155 173.395 194.3 172.881C194.413 172.927 194.534 172.973 194.661 173.018C194.886 173.097 195.131 173.174 195.399 173.232C194.779 173.516 194.196 174.059 193.771 175.04C193.674 175.312 193.815 175.611 194.086 175.708C194.357 175.806 194.656 175.664 194.753 175.393C195.012 174.487 195.477 173.994 196.01 173.768C196.297 173.647 196.593 173.589 196.871 173.583C197.541 173.567 198.098 173.791 198.197 173.832C199.273 174.44 199.888 175.128 200.207 175.812ZM200.943 175.65C200.949 175.403 200.99 175.136 201.091 174.874C201.264 174.426 201.65 174.014 202.387 173.725C202.856 173.523 203.26 173.512 203.597 173.625C203.984 173.755 204.279 174.052 204.468 174.422C204.539 174.555 204.657 174.69 204.846 174.765C204.806 174.856 204.792 174.959 204.809 175.059C204.809 175.059 204.925 175.615 204.992 176.158C205.023 176.412 205.049 176.662 205.038 176.841C204.977 177.757 204.668 178.732 204.026 179.148C203.774 179.31 203.467 179.391 203.129 179.304C202.737 179.203 202.354 178.871 201.912 178.365C201.699 178.171 201.369 178.187 201.176 178.401L201.17 178.407L201.16 178.418C201.337 177.697 201.413 176.698 200.957 175.681L200.943 175.65ZM200.103 172.325C199.582 172.15 199.15 171.843 198.875 171.612C199.09 171.179 199.222 170.684 199.221 170.148C199.22 169.3 198.887 168.343 197.997 167.399C197.801 167.192 197.573 166.988 197.317 166.786C197.521 166.446 197.764 166.197 198.068 166.062C198.37 165.928 198.709 165.906 199.041 165.933C200.433 166.05 201.839 167.195 202.271 167.851C202.614 168.366 202.834 169.372 202.759 170.319C202.726 170.725 202.636 171.119 202.453 171.46C202.289 171.766 202.058 172.035 201.705 172.203C201.118 172.504 200.571 172.481 200.103 172.325ZM191.672 167.678L191.671 167.678L191.671 167.678L191.646 167.686C191.581 167.705 191.516 167.724 191.45 167.741C191.569 167.822 191.689 167.91 191.81 168.005C191.842 167.891 191.885 167.751 191.944 167.596C191.854 167.624 191.763 167.651 191.672 167.678L191.672 167.678ZM192.269 168.397C192.527 168.634 192.792 168.903 193.066 169.206C194.022 170.313 194.4 171.305 194.399 172.152C194.536 172.259 194.696 172.361 194.884 172.442C195.328 172.634 195.905 172.701 196.586 172.628C197.354 172.529 198.288 171.465 198.185 170.19C198.154 169.812 198.015 169.421 197.764 169.018C197.468 168.541 197.007 168.061 196.332 167.594C195.808 167.196 195.348 166.952 194.939 166.82C194.587 166.707 194.284 166.667 194.015 166.711C193.886 166.732 193.765 166.767 193.652 166.813C193.516 166.898 193.37 166.984 193.215 167.069C192.975 167.256 192.787 167.487 192.644 167.703C192.436 168.019 192.311 168.298 192.269 168.397ZM192.089 182.764C191.94 182.482 192.022 182.126 192.284 181.943C192.562 181.75 192.938 181.821 193.131 182.101L193.143 182.12L193.143 182.12L193.408 182.304C193.509 182.285 193.628 182.264 193.747 182.247C193.922 182.221 194.095 182.205 194.222 182.209C194.675 182.224 194.976 182.241 195.265 182.3C195.567 182.362 195.859 182.465 196.286 182.665C196.741 182.881 197.262 183.412 197.503 184.016C197.687 184.476 197.725 184.966 197.531 185.387C197.41 185.65 197.241 185.836 197.033 185.959C197.065 186.019 197.094 186.081 197.12 186.145C197.201 186.344 197.259 186.552 197.285 186.752C197.374 187.414 197.422 188.116 197.274 188.754C197.168 189.211 196.97 189.64 196.617 190.002C196.6 190.02 196.582 190.036 196.562 190.049C196.562 190.049 195.782 190.556 194.664 190.175C194.054 189.966 193.321 189.506 192.533 188.446C192.446 188.308 192.43 188.145 192.474 188C191.892 188.267 191.401 188.083 191.019 187.725C190.474 187.213 190.226 186.213 190.313 185.589C190.365 185.238 190.44 184.977 190.549 184.737C190.662 184.49 190.82 184.269 191.05 184.005C191.146 183.896 191.34 183.691 191.524 183.51C191.675 183.363 191.823 183.235 191.919 183.167L192.174 182.93V182.929L192.173 182.891C192.156 182.869 192.141 182.848 192.127 182.827L192.16 182.804C192.149 182.767 192.127 182.748 192.092 182.762L192.089 182.764ZM192.089 182.764C192.097 182.779 192.106 182.794 192.115 182.809L192.127 182.827L192.125 182.824L192.123 182.822L192.118 182.816L192.112 182.81C192.096 182.793 192.076 182.772 192.089 182.764ZM195.589 186.22C195.53 186.237 195.472 186.25 195.415 186.258C195.181 186.283 194.966 186.121 194.921 185.884C194.875 185.646 195.014 185.413 195.24 185.345C195.38 185.299 195.526 185.267 195.67 185.243C195.834 185.215 195.995 185.199 196.137 185.185C196.178 185.181 196.218 185.177 196.255 185.173C196.348 185.163 196.435 185.14 196.508 185.095C196.551 185.069 196.577 185.023 196.599 184.967C196.684 184.753 196.572 184.517 196.442 184.304C196.283 184.045 196.047 183.825 195.833 183.736C195.506 183.597 195.285 183.523 195.056 183.485C194.821 183.446 194.578 183.447 194.215 183.448H194.215L194.204 183.448L193.416 183.585C193.359 183.598 193.301 183.603 193.243 183.599C193.221 183.632 193.195 183.662 193.167 183.69L192.574 184.194L191.882 184.815C191.728 184.972 191.615 185.099 191.535 185.25C191.455 185.399 191.4 185.565 191.352 185.787C191.285 186.091 191.352 186.556 191.546 186.895C191.696 187.157 191.927 187.358 192.268 187.209C192.496 187.11 192.716 186.988 192.937 186.866L192.937 186.866L192.937 186.866L192.937 186.866L192.937 186.866L192.937 186.865L192.937 186.865L192.937 186.865L192.937 186.865L192.938 186.865L192.938 186.865L192.938 186.865L192.938 186.865L192.938 186.865L192.938 186.865L192.938 186.865L192.938 186.865L192.938 186.865L192.938 186.865L192.938 186.865C193.176 186.733 193.416 186.6 193.665 186.496C193.894 186.401 194.128 186.326 194.377 186.293C194.52 186.264 194.657 186.36 194.685 186.506C194.712 186.652 194.619 186.793 194.477 186.821C194.28 186.873 194.101 186.96 193.926 187.059C193.693 187.19 193.473 187.346 193.254 187.502L193.253 187.503C193.19 187.548 193.127 187.592 193.064 187.636C193.198 187.663 193.323 187.743 193.402 187.87C193.794 188.624 194.181 189.107 194.576 189.378C194.874 189.584 195.158 189.678 195.405 189.697C195.806 189.729 196.094 189.584 196.186 189.528C196.42 189.255 196.546 188.94 196.606 188.609C196.707 188.052 196.619 187.449 196.512 186.883C196.487 186.752 196.441 186.617 196.38 186.489C196.323 186.37 196.249 186.26 196.162 186.167L196.161 186.166C196.047 186.17 195.923 186.176 195.797 186.19C195.728 186.198 195.658 186.207 195.589 186.22ZM185.984 173.865C185.999 173.589 185.973 173.101 185.702 172.564C185.554 172.271 185.315 171.983 184.975 171.67C184.712 171.428 184.399 171.164 183.982 170.924C182.97 170.273 182.267 170.084 181.749 170.219C181.254 170.349 180.925 170.723 180.805 171.117C180.649 171.63 180.819 172.098 180.819 172.098C180.815 172.387 180.577 172.617 180.289 172.612C180.194 172.61 180.105 172.583 180.028 172.537C180.316 172.973 180.528 173.292 180.849 173.453C181.108 173.583 181.425 173.596 181.884 173.516C182.886 173.271 184.486 173.302 185.881 173.825C185.916 173.838 185.95 173.851 185.984 173.865ZM190.272 171.393C190.064 171.269 190.067 171.162 190.067 171.162L190.067 171.162C190.075 171.16 190.083 171.159 190.091 171.157L190.067 171.162C189.934 171.181 189.804 171.095 189.772 170.961C189.738 170.819 189.826 170.675 189.985 170.638C189.985 170.638 189.969 170.601 190.141 170.391C190.203 170.315 190.257 170.292 190.364 170.249C190.408 170.231 190.459 170.233 190.506 170.242L190.509 170.242C190.599 170.26 190.678 170.276 190.743 170.334C190.794 170.378 190.846 170.409 190.893 170.437C190.981 170.489 191.054 170.532 191.079 170.641C191.084 170.666 191.097 170.682 191.11 170.697C191.125 170.715 191.14 170.733 191.14 170.762C191.14 170.791 191.151 170.813 191.161 170.834C191.173 170.86 191.185 170.885 191.178 170.921C191.17 170.956 191.172 170.988 191.174 171.021C191.176 171.073 191.179 171.126 191.145 171.191C191.135 171.209 191.126 171.227 191.126 171.249L191.126 171.252C191.126 171.274 191.126 171.288 191.141 171.308C191.184 171.367 191.19 171.386 191.196 171.403C191.202 171.423 191.207 171.441 191.278 171.522C191.175 171.791 190.874 171.927 190.605 171.824C190.415 171.752 190.293 171.581 190.272 171.393ZM190.517 171.355C190.586 171.393 190.635 171.39 190.711 171.249C190.718 171.236 190.695 171.226 190.677 171.218C190.662 171.211 190.65 171.205 190.66 171.201C190.716 171.178 190.49 171.218 190.526 171.253C190.555 171.282 190.543 171.319 190.517 171.355ZM184.331 176.725C184.341 176.694 184.344 176.663 184.344 176.631C184.393 176.626 184.441 176.614 184.488 176.594C184.754 176.482 184.878 176.175 184.767 175.91C184.686 175.893 184.661 175.873 184.64 175.856C184.621 175.84 184.605 175.827 184.546 175.822C184.529 175.82 184.523 175.815 184.516 175.81C184.511 175.805 184.505 175.8 184.491 175.797C184.468 175.793 184.458 175.784 184.446 175.773C184.44 175.768 184.434 175.763 184.426 175.757C184.281 175.658 184.188 175.621 184.07 175.595C183.965 175.573 183.883 175.627 183.765 175.706C183.723 175.734 183.676 175.765 183.621 175.797C183.484 175.876 183.38 176 183.246 176.171C183.206 176.221 183.173 176.276 183.154 176.337C183.141 176.378 183.137 176.419 183.139 176.461C183.144 176.539 183.149 176.59 183.172 176.656C183.27 176.933 183.341 176.99 183.341 176.99C183.307 177.14 183.397 177.282 183.539 177.314C183.682 177.346 183.823 177.256 183.855 177.113C183.855 177.113 184.015 177.091 184.25 176.844C184.283 176.809 184.315 176.774 184.331 176.725ZM200.821 168.382C200.904 168.23 201.061 168.123 201.246 168.112C201.533 168.094 201.781 168.314 201.798 168.601C201.726 168.663 201.707 168.688 201.687 168.715C201.672 168.736 201.656 168.758 201.612 168.799C201.584 168.825 201.577 168.849 201.567 168.883C201.549 168.945 201.536 168.998 201.524 169.046L201.524 169.046L201.524 169.046C201.506 169.115 201.491 169.174 201.469 169.236C201.458 169.266 201.439 169.285 201.419 169.303C201.403 169.318 201.388 169.332 201.376 169.352C201.307 169.471 201.193 169.495 201.054 169.525L201.054 169.525C201.004 169.535 200.951 169.546 200.895 169.563C200.732 169.611 200.555 169.587 200.359 169.528C200.299 169.51 200.24 169.478 200.196 169.435C200.105 169.348 200.054 169.277 200.014 169.178C199.914 168.933 199.927 168.849 199.927 168.849L199.917 168.842C199.802 168.751 199.783 168.584 199.873 168.469C199.963 168.355 200.13 168.335 200.244 168.425C200.244 168.425 200.38 168.348 200.698 168.363C200.702 168.363 200.706 168.364 200.71 168.364C200.713 168.364 200.717 168.364 200.72 168.364L200.721 168.364C200.75 168.365 200.778 168.366 200.808 168.376L200.821 168.382ZM201.001 168.77C200.991 168.802 201.001 168.86 201.009 168.905C201.011 168.921 201.014 168.936 201.015 168.946C201.023 168.948 201.032 168.95 201.043 168.953L201.043 168.953L201.043 168.953C201.085 168.964 201.14 168.978 201.137 168.946C201.126 168.825 201.076 168.787 201.001 168.77ZM196.911 176.966C196.637 176.791 196.536 176.668 196.536 176.668C196.395 176.63 196.31 176.485 196.348 176.344C196.386 176.202 196.531 176.118 196.672 176.156C196.672 176.156 196.799 176.076 197.088 176.006C197.118 175.998 197.148 175.99 197.179 175.982L197.179 175.982C197.266 175.958 197.358 175.932 197.465 175.925C197.526 175.921 197.588 175.929 197.651 175.936L197.671 175.938C197.72 175.944 197.767 175.956 197.814 175.968C197.864 175.981 197.914 175.994 197.967 175.999C198.017 176.003 198.067 176.013 198.114 176.023C198.221 176.045 198.32 176.066 198.411 176.018C198.415 176.015 198.419 176.013 198.423 176.011C198.427 176.009 198.431 176.007 198.435 176.006C198.473 175.987 198.515 175.966 198.527 175.926C198.537 175.89 198.516 175.87 198.492 175.848C198.474 175.832 198.455 175.814 198.444 175.787C198.436 175.77 198.425 175.765 198.414 175.76C198.403 175.755 198.391 175.75 198.381 175.735C198.443 175.453 198.721 175.274 199.002 175.335C199.283 175.397 199.462 175.675 199.401 175.957C199.344 175.999 199.313 176.035 199.284 176.068L199.284 176.068C199.25 176.109 199.219 176.144 199.151 176.182C199.115 176.202 199.095 176.222 199.07 176.247L199.052 176.264C199.024 176.292 199.003 176.326 198.982 176.36C198.974 176.374 198.965 176.387 198.956 176.401C198.918 176.457 198.877 176.505 198.833 176.555L198.809 176.583L198.79 176.605C198.583 176.85 198.29 176.984 197.948 177.096C197.825 177.136 197.701 177.158 197.573 177.164C197.491 177.168 197.408 177.162 197.331 177.142C197.163 177.099 197.03 177.042 196.911 176.966Z" fill="#904402"/>
<path fill-rule="evenodd" clip-rule="evenodd" d="M194.722 68.7367C195.023 68.0671 194.029 67.587 193.304 67.5841C192.58 67.5811 191.57 67.3696 191.625 66.6361C193.31 66.0511 195.214 66.1447 196.835 66.892C196.001 68.2943 195.479 69.887 195.32 71.5173C195.299 71.7285 195.309 71.9888 195.493 72.0895C195.634 72.1668 195.807 72.1067 195.954 72.0421C197.999 71.1429 199.709 69.4845 200.686 67.4523C200.961 66.8822 201.792 66.8144 202.321 67.1534C202.849 67.4922 203.144 68.0943 203.415 68.6665C203.705 69.2822 204.601 69.3008 205.188 68.9674C205.775 68.6339 206.206 68.0676 206.788 67.7244C207.369 67.3809 208.257 67.3658 208.579 67.9658C207.582 68.7234 206.586 69.4813 205.589 70.2388C204.828 70.8178 203.693 71.3811 203.027 70.6914C202.67 70.3215 202.644 69.743 202.414 69.2808C202.183 68.8187 201.452 68.5247 201.206 68.9783C199.999 71.1978 197.901 72.8998 195.502 73.6034C195.03 73.7415 194.428 73.8007 194.139 73.3976C194.003 73.2075 193.977 72.9596 193.967 72.7247C193.904 71.3597 194.165 69.9806 194.722 68.7367V68.7367Z" fill="black"/>
<path fill-rule="evenodd" clip-rule="evenodd" d="M170.083 170.331C169.123 168.721 168.563 166.868 168.468 164.988C168.431 164.252 169.03 163.542 169.753 163.467C169.599 165.887 170.22 168.352 171.499 170.4C171.702 170.724 171.273 171.147 170.902 171.076C170.53 171.005 170.279 170.66 170.083 170.331V170.331Z" fill="black"/>
<path fill-rule="evenodd" clip-rule="evenodd" d="M192.812 60.3165C193.671 61.7176 193.829 63.5386 193.222 65.07C193.182 65.1725 193.134 65.2782 193.047 65.344C192.692 65.6105 192.337 65.0034 192.295 64.5574C192.209 63.6601 192.124 62.763 192.039 61.8656C191.975 61.2043 192.159 60.2652 192.812 60.3165V60.3165Z" fill="black"/>
<path fill-rule="evenodd" clip-rule="evenodd" d="M163.471 142.832C163.471 142.832 164.373 142.157 166.023 142.67C166.023 142.67 166.751 143.226 165.959 143.683C165.959 143.683 165.449 143.86 165.049 144.114C165.084 144.227 164.282 143.928 163.79 143.757C163.79 143.757 162.966 143.492 163.471 142.832Z" fill="#904402"/>
<path fill-rule="evenodd" clip-rule="evenodd" d="M210.933 95.3934C210.801 94.6244 210.669 93.8616 210.088 93.3953C209.07 92.5777 209.133 90.9716 209.593 89.7389C209.737 89.3528 209.911 88.9745 210.085 88.5967C210.466 87.7683 210.846 86.9418 210.909 86.0388C210.999 84.7661 210.45 83.5519 209.906 82.3499C209.283 80.9722 208.667 79.6105 209.028 78.1948C209.476 76.4382 211.126 75.5815 212.805 74.7094C214.289 73.9385 215.796 73.1556 216.517 71.7286C217.334 70.1139 216.874 68.1323 216.099 66.4966C215.481 65.1918 214.637 63.9417 213.416 63.193C212.195 62.4443 210.541 62.2992 209.372 63.1285C208.203 63.9577 207.829 65.8661 208.818 66.9089C209.377 66.7383 209.51 66.1301 209.648 65.5037C209.771 64.9425 209.898 64.3667 210.336 64.078C210.88 63.7193 211.597 64.0062 212.179 64.298C213.036 64.728 213.921 65.179 214.529 65.9274C215.138 66.6761 215.396 67.811 214.876 68.6254C214.65 68.9784 214.321 69.503 214.674 69.7239C215.276 70.1003 215.31 71.0326 214.932 71.6385C214.554 72.2445 213.897 72.6001 213.266 72.9238L213.095 73.0117C211.478 73.841 209.815 74.6939 208.654 76.1009C207.453 77.5577 206.949 79.7999 208.012 81.364C210.286 84.7096 208.928 89.2482 207.5 93.0458C208.649 93.4317 209.076 94.6556 209.503 95.8799C209.665 96.3453 209.827 96.8108 210.029 97.2303C211.602 100.498 215.969 101.103 219.503 100.5C220.191 100.383 221.078 99.8988 220.83 99.2364C220.253 99.2623 219.677 99.3164 219.1 99.3704L219.1 99.3704L219.1 99.3704L219.1 99.3704L219.099 99.3704L219.099 99.3704L219.099 99.3704L219.099 99.3704L219.099 99.3705L219.099 99.3705L219.099 99.3705L219.099 99.3705L219.098 99.3705L219.098 99.3705L219.098 99.3705L219.098 99.3705L219.098 99.3706L219.098 99.3706L219.098 99.3706L219.097 99.3706L219.097 99.3706L219.097 99.3706L219.097 99.3706C217.852 99.4872 216.609 99.6037 215.374 99.438C213.566 99.1958 211.698 98.1631 211.15 96.398C211.051 96.0789 210.992 95.7355 210.933 95.3934ZM198.988 92.3723C194.655 96.1515 189.724 99.1604 184.685 101.894C183.778 102.386 182.865 102.872 181.95 103.358C176.734 106.129 171.484 108.919 167.26 113.046C165.118 115.139 163.277 117.548 161.813 120.175C160.959 119.531 161.413 118.159 161.995 117.255C166.76 109.848 174.851 105.578 182.627 101.473C183.093 101.227 183.558 100.982 184.021 100.737C192.209 96.3964 200.735 91.1017 204.334 82.4658C204.759 86.365 201.92 89.8155 198.988 92.3723ZM137.568 100.119C139.968 101.408 143.492 101.899 144.927 99.5595C142.009 100.16 138.879 99.6375 136.305 98.1185C135.962 97.9165 135.619 97.6951 135.274 97.4724C133.86 96.5593 132.409 95.623 130.809 95.9008C130.33 95.984 129.871 96.1764 129.415 96.3676C128.768 96.6391 128.126 96.9085 127.437 96.8606C126.264 96.7796 125.543 94.7366 126.702 94.5388L121.674 93.7313L117.208 93.0139C118.661 89.8773 119.509 86.4526 119.687 82.9908C119.348 83.0153 119.029 83.037 118.732 83.0572C115.762 83.2592 114.94 83.315 117.978 84.6273C118.225 87.4906 117.213 90.4418 115.269 92.5318C115.919 94.3597 118.026 94.6233 120.138 94.8876C122.24 95.1505 124.346 95.4141 125.028 97.2196C125.358 98.0956 126.456 98.4113 127.371 98.2757C127.861 98.2027 128.331 98.0378 128.802 97.8727C129.207 97.7304 129.613 97.5879 130.033 97.5042C132.232 97.0662 134.299 98.255 136.303 99.408C136.727 99.6519 137.149 99.8943 137.568 100.119ZM248.338 156.652C248.677 155.342 249.164 153.895 250.362 153.299C244.059 177.449 246.315 203.806 256.628 226.49C255.333 225.288 254.221 223.881 253.34 222.341C251.88 219.791 251.075 216.915 250.347 214.059C245.568 195.317 243.496 175.377 248.338 156.652ZM89.7924 197.544C89.5674 197.093 89.3781 196.598 89.4277 196.095C89.5709 194.638 91.4047 194.153 92.8449 194.077C102.29 193.574 111.678 194.912 121.07 196.251L121.07 196.252C124.978 196.809 128.888 197.366 132.802 197.791C140.372 198.612 147.984 198.938 155.591 199.263L174.504 200.072C181.969 200.391 189.845 200.62 196.437 197.05C194.033 200.691 189.029 201.162 184.712 201.213C161.375 201.486 138.019 200.034 114.889 196.872C114.28 196.788 113.671 196.704 113.061 196.619C106.307 195.683 99.508 194.741 92.7287 195.354C91.7811 195.44 90.5518 195.885 90.6415 196.846C90.6861 197.327 91.0762 197.69 91.4474 197.992C93.6534 199.786 96.1663 201.189 98.8395 202.121C95.2854 202.768 91.4231 200.814 89.7924 197.544ZM222.768 101.333C220.822 100.659 218.459 101.635 217.528 103.497L225.279 108.88C226.069 109.429 227.096 109.992 227.92 109.497C229.991 108.253 233.086 109.643 233.572 112.035C233.623 110.398 235.411 109.316 237.025 109.306C238.157 109.299 239.242 109.649 240.329 109.999C240.792 110.147 241.255 110.296 241.721 110.418C244.965 111.264 248.533 110.739 251.407 108.996C252.098 108.576 252.949 109.08 253.644 109.496C257.288 111.685 262.172 111.526 265.67 109.105C263.122 118.554 257.987 126.972 252.884 135.338C251.923 136.915 250.962 138.489 250.02 140.069C244.081 150.03 238.655 160.917 238.625 172.56C238.624 173.2 238.978 174.097 239.567 173.868C240.41 161.292 244.931 148.994 252.409 138.931C252.923 138.238 253.498 137.522 254.306 137.241C254.942 137.02 255.634 137.099 256.299 137.199C260.99 137.908 265.545 139.553 269.624 142.015C269.172 141.268 274.03 140.865 279.128 140.441L279.129 140.441L279.13 140.441L279.13 140.441C280.841 140.299 282.578 140.155 284.151 139.995C287.416 139.662 290.657 136.319 291.249 135.257C291.355 135.068 291.038 135.276 290.437 135.671L290.437 135.671C289.066 136.571 286.221 138.44 283.564 138.766L283.077 138.826C279.105 139.315 274.235 139.914 270.674 139.695C268.498 139.561 271.255 131.795 271.544 131.309C269.848 130.911 268.877 133.18 268.591 134.921C268.302 136.662 267.243 138.918 265.571 138.431C262.359 137.495 259.146 136.559 255.934 135.623L255.73 135.564L255.522 135.503L255.31 135.442L254.761 135.282C260.176 125.877 264.836 116.023 268.673 105.85C268.926 106.993 278.225 105.512 277.411 105.274C277.006 105.155 275.818 105.166 274.511 105.179C272.643 105.196 270.533 105.216 270.123 104.863C269.425 104.262 268.188 104.22 267.721 105.018C265.165 109.393 258.898 110.993 254.607 108.367L254.553 108.334L254.433 108.261C253.417 107.634 252.209 106.889 251.234 107.529C248.331 109.433 244.592 109.964 241.286 108.941C240.821 108.797 240.363 108.624 239.905 108.451L239.905 108.451C238.999 108.108 238.095 107.766 237.139 107.652C235.7 107.481 234.031 108.001 233.438 109.342C232.865 107.657 230.601 106.847 229.115 107.795C227.553 108.79 225.498 107.779 224.118 106.536C223.874 106.316 223.632 106.086 223.388 105.855C222.257 104.779 221.099 103.679 219.596 103.465L222.768 101.333ZM185.462 235.772C184.557 237.111 182.634 237.06 181.044 236.897C174.882 236.275 168.671 236.163 162.492 236.563C160.835 236.669 158.811 237.099 158.341 238.716C157.601 238.68 157.282 237.62 157.659 236.974C158.037 236.326 158.797 236.035 159.511 235.831C162.168 235.076 164.987 234.91 167.713 235.351C169.312 235.609 170.87 234.487 171.703 233.08C172.417 231.872 172.727 230.48 173.034 229.1C173.065 228.962 173.095 228.823 173.127 228.685L173.156 228.556L173.19 228.41C174.878 221.121 178.735 214.365 184.126 209.255C184.867 208.553 186.035 207.868 186.793 208.549C179.15 215.45 174.041 225.178 172.657 235.467C176.925 235.257 181.208 235.357 185.462 235.772ZM227.261 153.542C227.125 154.392 226.256 155.482 225.701 154.831C228.468 140.089 225.809 124.362 218.358 111.401C218.187 111.024 218.696 110.632 219.088 110.748C219.48 110.863 219.72 111.252 219.921 111.613C226.926 124.214 229.56 139.262 227.261 153.542ZM109.899 142.544C107.046 144.436 104.013 146.048 100.855 147.35C99.9166 147.737 98.5241 147.911 98.1804 146.944L97.0149 143.665L95.0771 138.211C94.7355 137.25 93.6765 136.094 92.9756 136.828C94.2263 139.979 95.4772 143.131 96.7277 146.282C97.2331 147.555 97.935 149.001 99.2616 149.265C100.219 149.455 101.161 148.94 102.005 148.445L104.08 147.226L106.142 146.015C108.207 144.802 110.785 143.577 112.847 144.795C114.164 145.572 115.986 145.323 117.053 144.22C118.119 143.117 118.331 141.263 117.541 139.941C117.263 139.476 117.574 138.834 118.046 138.574C118.518 138.315 119.084 138.332 119.62 138.356L127.074 138.685C127.845 138.719 128.966 138.256 128.613 137.56C125.249 137.282 121.88 137.06 118.509 136.895C118.076 136.874 117.624 136.858 117.23 137.04C116.027 137.598 116.226 139.352 116.448 140.675C116.671 141.998 116.199 143.894 114.885 143.743C113.184 143.546 111.507 143.143 109.899 142.544ZM112.728 210.079C123.754 215.651 133.496 223.822 140.965 233.764C141.438 234.395 141.548 235.713 140.777 235.585C132.899 224.524 122.037 215.677 109.694 210.264C110.191 209.23 111.713 209.566 112.728 210.079ZM158.188 95.4208C157.059 97.3293 156.27 99.8753 157.551 101.682C158.385 101.771 158.309 100.446 158.204 99.6014C158.056 98.4099 158.604 97.2475 159.219 96.2219C162.552 90.6681 168.001 87.0417 173.431 83.4282L173.431 83.4281C175.184 82.2621 176.934 81.0975 178.61 79.8699C179.842 78.9675 181.188 77.6253 180.778 76.1401C178.01 78.7888 174.789 80.9752 171.581 83.1519C166.437 86.6436 161.329 90.1104 158.188 95.4208ZM189.407 273.721C190.086 274.953 190.559 276.627 189.626 277.672C188.324 272.771 184.424 269.092 180.666 265.743C178.334 263.664 175.989 261.603 173.629 259.556C171.213 257.459 168.598 255.297 165.449 254.862L165.293 254.84C164.24 254.696 162.972 254.521 162.681 253.509C166.018 252.54 169.401 254.672 172.162 256.808C176.333 260.033 180.314 263.51 184.079 267.215C186.081 269.187 188.046 271.251 189.407 273.721ZM78.0115 128.364C80.0933 129.983 82.075 131.864 83.1886 134.274C83.8984 135.811 84.1888 137.741 83.2332 139.134C83.1066 139.709 84.0257 139.801 84.5698 139.593C87.1558 138.607 89.7311 137.593 92.2961 136.552C91.7181 135.78 90.5382 135.832 89.6623 136.218C89.3361 136.362 89.0238 136.541 88.7121 136.72L88.712 136.72C88.1868 137.022 87.6632 137.322 87.0775 137.452C86.1444 137.657 84.9418 137.162 84.8828 136.195C84.622 131.913 80.8218 128.867 77.3603 126.405C76.5845 125.853 75.7194 125.276 74.7764 125.367C73.8417 125.457 73.1425 126.157 72.454 126.846L72.4539 126.846C72.2625 127.038 72.072 127.228 71.8775 127.405C70.9831 128.217 69.4135 128.699 68.7079 127.714L67.778 126.415L67.7661 126.399L67.7624 126.393L67.7601 126.39C67.2554 125.686 66.7508 124.981 66.246 124.276C65.8539 123.729 65.4364 123.159 64.8327 122.872C64.2291 122.584 63.385 122.695 63.0649 123.289C65.2135 124.912 67.0166 127.003 68.317 129.38C68.9169 130.476 70.6065 130.136 71.5495 129.326C71.8224 129.092 72.0798 128.828 72.337 128.564L72.337 128.564L72.3371 128.564L72.3371 128.564C72.9687 127.916 73.599 127.27 74.4534 127.065C75.7235 126.762 76.9757 127.558 78.0115 128.364ZM189.389 152.841C189.128 152.31 189.169 151.68 189.261 151.094C189.902 147.035 192.731 143.587 196.156 141.395C199.582 139.202 203.57 138.11 207.534 137.272C208.845 136.995 210.647 137.023 211.01 138.331C206.769 138.783 202.465 139.458 198.65 141.392C194.834 143.325 191.528 146.711 190.614 150.939C190.442 151.731 190.18 152.728 189.389 152.841ZM273.011 230.459C270.155 229.206 267.018 228.623 263.911 228.762C264.03 229.775 265.285 230.121 266.286 230.237C269.866 230.651 273.784 231.395 276.042 234.244C276.55 234.883 276.964 235.653 276.944 236.474C276.909 238.171 275.158 239.24 273.589 239.817C270.767 240.854 267.765 241.384 264.766 241.375C264.372 241.372 264.255 242 264.532 242.284C264.809 242.569 265.25 242.583 265.644 242.574C268.938 242.483 272.215 241.733 275.228 240.383C275.882 240.09 276.535 239.761 277.046 239.252C278.391 237.91 278.371 235.582 277.405 233.933C276.439 232.286 274.744 231.22 273.011 230.459ZM219.665 257.157C217.93 258.333 217.02 260.4 216.315 262.393C214.497 267.543 213.468 272.978 213.277 278.445L213.276 278.479V278.48C213.251 279.168 213.226 279.888 212.885 280.482C212.165 280.044 212.08 279.034 212.098 278.181C212.235 271.6 213.67 265.052 216.295 259.035C216.604 258.324 216.954 257.592 217.57 257.13C218.185 256.668 219.145 256.585 219.665 257.157ZM272.033 247.518C273.375 246.072 274.746 244.23 274.294 242.299C273.979 242.03 273.466 242.234 273.238 242.581C273.062 242.851 273 243.172 272.937 243.493L272.937 243.493L272.937 243.494C272.919 243.588 272.9 243.682 272.879 243.774C272.587 245.015 271.733 246.031 270.878 246.964C267.878 250.227 264.5 253.127 260.835 255.591L260.742 255.653L260.65 255.714L260.609 255.742L260.451 255.847L260.325 255.93L260.321 255.933C259.006 256.804 257.679 257.684 256.678 258.902C256.733 259.441 257.544 259.322 257.999 259.041C263.158 255.86 267.893 251.972 272.033 247.518ZM139.628 211.932C140.007 211.376 140.847 211.898 141.271 212.42C146.636 219.027 152.079 225.96 154.212 234.244C154.319 234.661 154.41 235.135 154.185 235.499C153.96 235.867 153.283 235.896 153.188 235.476C151.541 228.164 147.362 221.669 142.464 216.055C142.395 215.975 142.326 215.896 142.256 215.817C141.219 214.631 140.158 213.419 139.628 211.932ZM205.85 148.474C208.129 147.799 210.463 147.318 212.821 147.039C212.027 145.579 209.91 145.86 208.337 146.345C203.698 147.777 198.798 149.375 195.633 153.105C194.738 154.16 194.085 155.942 195.172 156.792C196.709 152.321 201.372 149.802 205.85 148.474ZM197.95 270.848C198.154 271.666 198.232 272.758 197.483 273.12L193.247 259.944C193.507 259.609 194.054 259.654 194.379 259.926C194.703 260.199 194.86 260.619 195.002 261.022C196.136 264.247 197.12 267.528 197.95 270.848ZM247.302 112.435C248.227 114.832 248.701 117.408 248.691 119.983C248.686 121.121 248.588 122.258 248.439 123.387C248.174 125.404 247.747 127.398 247.164 129.345C246.978 129.965 246.79 130.688 247.155 131.219C247.874 131.147 248.236 130.32 248.434 129.615C249.604 125.449 250.091 121.086 249.869 116.76C249.822 115.84 249.738 114.898 249.348 114.066C248.959 113.234 248.205 112.522 247.302 112.435ZM240.198 271.373C240.529 270.778 240.89 270.167 241.457 269.8C242.023 269.436 242.856 269.397 243.307 269.904C241.418 271.699 240.21 274.089 239.04 276.431L238.893 276.724L238.884 276.742C238.354 277.802 237.823 278.863 237.293 279.926C236.61 280.006 236.571 278.913 236.84 278.273C237.83 275.91 238.952 273.606 240.198 271.373ZM200.855 159.626C200.213 160.456 199.71 161.809 200.55 162.432C202.971 158.177 207.438 155.187 212.245 154.603C212.694 154.549 212.741 153.818 212.385 153.536C212.028 153.253 211.524 153.302 211.079 153.382C207.076 154.11 203.364 156.377 200.855 159.626ZM214.16 164.174C213.671 164.586 212.793 164.1 212.831 163.457C212.868 162.813 213.725 162.415 214.254 162.771C214.784 163.128 214.795 164.028 214.302 164.435L214.16 164.174ZM154.399 136.748C154.378 137.419 155.242 137.931 155.796 137.567L155.926 137.657C156.455 137.254 156.418 136.295 155.848 135.955C155.279 135.615 154.42 136.078 154.399 136.748ZM225.13 271.254C226.034 269.424 228.178 268.565 230.189 268.417C231.267 268.336 232.347 268.413 233.427 268.489C234.362 268.555 235.297 268.622 236.231 268.586C239.624 268.456 242.943 266.921 245.267 264.41C246.631 262.935 248.774 261.001 250.202 262.414C251.257 257.421 253.617 252.721 256.975 248.921C257.05 248.837 257.125 248.752 257.201 248.667C257.309 248.546 257.418 248.423 257.528 248.3L257.531 248.297C260.094 245.426 263.091 242.069 261.74 238.568C261.337 237.519 260.588 236.682 259.836 235.842L259.836 235.842C259.4 235.355 258.963 234.867 258.592 234.335C257.579 232.887 257.217 230.571 258.647 229.55C253.859 228.211 249.069 226.872 244.28 225.537C243.116 225.211 241.916 224.867 240.971 224.106C239.409 222.845 238.858 220.721 238.397 218.752C237.046 212.964 235.69 207.138 235.386 201.2C235.197 197.527 235.414 193.855 235.63 190.18C235.784 187.57 235.938 184.959 235.947 182.347C235.969 176.057 235.053 169.51 231.582 164.299C232.358 160.654 228.422 157.991 225.016 156.483C224.992 156.63 224.909 156.765 224.776 156.847C224.536 156.996 224.224 156.915 224.081 156.666C223.878 156.164 223.877 155.634 224.019 155.078C224.072 154.869 224.134 154.658 224.204 154.446C224.494 153.565 224.981 152.717 225.201 152.355C225.125 152.085 225.017 151.894 224.901 151.758C224.728 151.555 224.528 151.526 224.449 151.524C223.647 151.742 222.997 152.149 222.44 152.617C222.441 152.892 222.23 153.125 221.951 153.149C221.925 153.151 221.9 153.151 221.875 153.15C221.677 153.359 221.494 153.576 221.322 153.796C220.863 154.386 220.49 154.995 220.204 155.556C219.64 156.66 219.378 157.539 219.378 157.539C219.353 157.684 219.22 157.781 219.08 157.756C218.94 157.731 218.846 157.593 218.871 157.448C218.871 157.448 218.926 156.446 219.353 155.174C219.579 154.5 219.911 153.758 220.387 153.064C220.677 152.641 221.025 152.239 221.428 151.884C221.427 151.8 221.423 151.719 221.413 151.64C221.382 151.394 221.315 151.181 221.241 150.998C220.989 150.372 220.654 150.118 220.464 150.019C219.606 150.586 218.977 151.467 218.449 152.384C218.235 152.756 218.041 153.137 217.854 153.507C217.652 153.908 217.457 154.296 217.288 154.666C217.131 155.008 216.986 155.327 216.861 155.62C216.486 156.492 216.277 157.086 216.277 157.086C216.25 157.232 216.108 157.329 215.961 157.302C215.814 157.274 215.717 157.133 215.745 156.986C215.745 156.986 215.786 156.018 216.113 154.716C216.217 154.298 216.36 153.853 216.538 153.396C216.648 153.112 216.775 152.826 216.922 152.546C217.212 151.997 217.567 151.464 217.972 150.979C218.602 150.224 219.354 149.589 220.226 149.194C220.317 149.146 220.423 149.134 220.522 149.159C220.522 149.159 221.047 149.288 221.505 150.056C221.656 150.308 221.791 150.637 221.928 151.057C221.954 151.138 221.981 151.222 222.015 151.307C222.027 151.339 222.039 151.371 222.052 151.403C222.687 150.98 223.429 150.67 224.281 150.518C224.304 150.512 224.328 150.509 224.352 150.508C224.352 150.508 224.927 150.463 225.416 150.976C225.668 151.24 225.924 151.656 226.008 152.355C226.027 152.469 225.998 152.586 225.928 152.677C225.928 152.677 224.999 153.674 224.72 154.795C224.643 155.102 224.651 155.416 224.713 155.699C224.75 155.865 224.846 155.996 224.951 156.127C224.99 156.194 225.013 156.267 225.02 156.34C227.348 155.879 229.776 157.191 231.291 159.064C232.855 160.996 233.648 163.435 234.408 165.813C235.583 169.489 236.766 173.198 237.148 177.043C237.469 180.262 237.221 183.497 236.973 186.729L236.973 186.73L236.973 186.73L236.973 186.731C236.898 187.716 236.823 188.701 236.763 189.685C236.145 199.948 237.297 210.319 240.151 220.185C241.331 224.26 246.428 225.288 250.584 225.797C254.644 226.295 259.62 227.936 260.217 231.953C259.976 231.562 258.916 231.794 258.918 232.446C258.918 233.162 259.565 233.652 260.142 234.09L260.143 234.09L260.205 234.137C260.23 234.156 260.254 234.175 260.278 234.193C262.373 235.807 263.543 238.591 263.199 241.236C262.828 244.125 260.889 246.455 259.008 248.715L259.008 248.715L259.008 248.715C258.73 249.049 258.453 249.382 258.183 249.715C254.294 254.498 251.379 260.098 249.678 266.057C248.712 265.47 248.07 264.369 248.027 263.228C245.716 266.978 241.544 269.48 237.191 269.72C236.213 269.775 235.23 269.723 234.249 269.672C232.84 269.598 231.434 269.524 230.049 269.765C227.7 270.173 225.281 271.932 225.265 274.352C221.898 268.672 221.809 261.143 225.04 255.386C225.934 253.79 226.605 251.059 224.824 250.745C224.696 247.805 227.274 245.432 229.955 244.31C231.107 243.828 232.313 243.489 233.518 243.15L233.518 243.15C235.117 242.701 236.714 242.252 238.177 241.47C240.742 240.099 242.889 237.122 241.962 234.332C240.963 231.329 237.047 230.423 234.03 231.244C232.399 231.685 230.892 232.468 229.384 233.251C228.102 233.916 226.819 234.582 225.458 235.04C224.305 235.429 223.102 235.666 221.902 235.903L221.902 235.903L221.902 235.903L221.902 235.904C220.112 236.257 218.329 236.609 216.722 237.46C214.038 238.878 212.119 242.631 214.015 245.027C215.118 246.419 212.809 248.139 211.062 247.92C210.649 247.868 210.221 247.781 209.792 247.694C208.407 247.412 206.999 247.126 205.962 247.994C211.661 248.859 217.443 249.152 223.198 248.871C223.14 249.854 221.849 250.124 220.878 250.109C211.186 249.958 201.502 249.244 191.89 247.97C190.031 247.725 188.163 247.459 186.292 247.192L186.289 247.192L186.286 247.191L186.284 247.191C174.413 245.5 162.356 243.782 150.911 247.058C152.961 249.185 155.78 250.529 158.701 250.778C156.504 251.261 154.037 251.696 152.15 250.455C150.263 249.214 150.153 245.572 152.353 245.104C163.526 242.72 174.894 244.346 186.301 245.978C192.236 246.827 198.181 247.678 204.116 247.966C204.145 247.968 204.176 247.97 204.206 247.97L204.116 247.966C202.307 247.834 201.784 245.066 202.801 243.496C203.424 242.535 204.336 241.847 205.253 241.156C205.86 240.698 206.469 240.239 206.996 239.699C205.233 239.104 203.3 239.82 201.703 240.783C201.233 241.067 200.773 241.375 200.313 241.683C199.214 242.42 198.116 243.156 196.871 243.57C195.105 244.159 192.865 243.886 191.833 242.317C190.801 240.75 192.101 238.037 193.916 238.443C199.067 239.589 204.495 234.261 203.54 228.999C203.346 227.932 202.948 226.924 202.549 225.915C202.194 225.016 201.838 224.116 201.627 223.173C200.634 218.73 202.914 214.533 205.154 210.41L205.154 210.41C205.775 209.267 206.392 208.13 206.936 206.995L207.058 206.741C208.95 202.8 211.914 196.625 208.354 194.347C198.584 188.094 195.358 182.185 197.782 183.387L213.07 178.068C214.752 177.483 216.81 175.699 215.637 174.342C215.256 173.902 214.651 173.755 214.085 173.644C213.681 173.566 213.273 173.494 212.866 173.422C211.301 173.146 209.732 172.87 208.295 172.2C206.483 171.357 204.87 169.712 204.722 167.695C204.514 164.876 206.835 163.183 209.256 161.417C211.07 160.095 212.939 158.732 213.844 156.824C214.388 155.677 214.544 154.385 214.66 153.118C215.148 147.781 215.036 142.253 213.103 137.265C211.17 132.277 207.153 127.891 202.011 126.672C194.841 124.973 187.587 129.707 183.035 135.581C176.245 144.343 173.398 156.133 175.427 167.089C172.627 162.562 173.025 156.728 174.256 151.531C176.999 139.95 184.45 128.558 195.768 125.416C192.884 123.619 189.093 123.805 186.024 125.253C182.955 126.7 180.518 129.254 178.506 132.016C173.68 138.637 170.923 146.788 170.726 155.021C170.145 155.585 169.47 154.411 169.508 153.596C170.002 142.765 175.159 132.236 183.368 125.298C178.017 125.82 173.281 130.29 172.381 135.669C171.426 135.517 171.363 134.132 171.668 133.202C173.051 128.99 176.756 125.851 180.877 124.364C184.998 122.877 189.501 122.86 193.845 123.377C200.565 124.177 207.566 126.509 211.721 131.929C216.121 137.669 216.407 145.557 215.957 152.815C215.781 155.643 215.243 158.924 212.791 160.277C211.058 161.233 209.286 162.244 208.061 163.813C206.835 165.381 206.278 167.66 207.227 169.414C208.176 171.17 210.92 171.793 212.186 170.258L212.075 171.253L211.946 172.408C213.736 171.682 215.974 172.347 217.095 173.938C218.217 175.529 218.114 177.893 216.859 179.378C217.429 178.339 215.274 178.025 214.578 178.982C214.417 179.204 214.264 179.454 214.11 179.706C213.6 180.544 213.075 181.404 212.179 181.32L212.388 179.329L210.31 180.408L206.004 182.643C210.228 182.833 214.5 181.7 218.092 179.438C219.128 178.785 220.947 178.346 221.162 179.564C214.25 183.057 206.412 184.638 198.71 184.091C198.756 185.53 199.984 186.616 201.178 187.392C207.745 191.657 216.545 192.11 223.504 188.542C219.961 192.025 214.581 192.508 209.656 192.796C211.372 197.021 210.147 201.875 208.35 206.064C207.898 207.119 207.409 208.164 206.919 209.209C205.464 212.316 204.007 215.428 203.514 218.811C202.855 223.33 204.524 228.655 208.69 230.385C208.189 228.156 210.48 226.517 212.367 225.167C212.463 225.098 212.559 225.03 212.653 224.962C217.408 221.542 220.142 215.728 220.807 209.851C221.473 203.974 220.26 198.021 218.364 192.427C220.021 192.708 220.717 194.7 221.045 196.373C222.991 206.291 222.692 218.082 215.084 224.616C214.718 224.93 214.33 225.246 213.936 225.568C211.575 227.496 208.99 229.607 209.537 232.47C210.454 237.258 207.686 242.512 203.252 244.396C203.117 245.391 203.938 246.41 204.924 246.472C205.911 246.537 206.852 245.631 206.841 244.627L208.152 246.661C209.111 246.934 209.955 246.004 210.529 245.178C210.81 246.274 212.064 247.002 213.137 246.691C210.382 242.187 214.095 235.262 219.319 235.165C224.444 235.07 229.439 232.188 232.141 227.767C232.311 228.543 232.481 229.316 232.651 230.092C235.025 229.615 237.574 229.582 239.774 230.61C241.974 231.635 243.725 233.888 243.646 236.343C243.518 240.306 239.229 242.592 235.492 243.735L235.473 243.741C231.74 244.883 227.367 246.221 226.042 249.94C227.128 249.952 227.841 251.225 227.737 252.324C227.648 253.271 227.153 254.108 226.667 254.93C226.589 255.062 226.512 255.193 226.436 255.324C223.699 260.08 223.205 266.104 225.13 271.254ZM260.217 231.953C260.262 232.027 260.278 232.124 260.252 232.245C260.248 232.199 260.243 232.153 260.237 232.108C260.231 232.056 260.224 232.004 260.217 231.953ZM194.678 239.977C194.097 240.093 193.473 240.241 193.083 240.691C192.692 241.144 192.727 242 193.281 242.213C193.703 241.716 194.247 241.325 194.849 241.088C194.605 242.071 195.995 242.968 196.77 242.329C199.273 240.261 202.327 238.89 205.518 238.399C205.601 238.386 205.685 238.373 205.77 238.361C206.481 238.256 207.209 238.148 207.796 237.738C208.452 237.279 208.827 236.281 208.342 235.641C208.041 235.244 208.155 234.727 208.268 234.213C208.308 234.03 208.348 233.848 208.37 233.672C208.594 231.824 206.711 230.506 205.083 229.65C204.817 230.422 204.75 231.24 204.684 232.059C204.622 232.817 204.56 233.576 204.34 234.3C203.761 236.204 202.138 237.626 200.352 238.449C198.771 239.181 197.049 239.515 195.339 239.848L195.329 239.85L195.324 239.851C195.109 239.893 194.893 239.935 194.678 239.977ZM172.783 182.285C172.841 180.886 171.855 179.373 170.606 179.053C168.585 178.535 163.713 177.723 160.331 177.578C161.282 174.974 162.233 172.37 163.183 169.766C164.082 172.532 165.642 175.075 167.692 177.117C167.586 175.513 166.793 174.1 165.997 172.682L165.997 172.682L165.997 172.682C165.629 172.026 165.261 171.37 164.959 170.692C164.005 168.55 164.057 165.44 166.178 164.486C169.699 162.903 171.667 157.745 169.015 154.916C168.139 153.982 166.958 153.461 165.779 152.941C165.37 152.761 164.962 152.581 164.567 152.384C163.03 151.619 161.499 150.292 161.495 148.558C164.237 148.195 166.57 146.116 167.751 143.584C168.933 141.053 169.087 138.134 168.72 135.359C168.707 135.259 168.693 135.159 168.679 135.058L168.679 135.055C168.455 133.399 168.207 131.56 169.285 130.331C171.557 127.74 170.42 123.709 169.163 120.486C168.857 119.703 168.339 118.774 167.509 118.835C167.025 118.87 166.642 119.251 166.332 119.628C164.691 121.62 163.765 124.201 163.76 126.795C161.851 126.858 160.296 125.076 159.823 123.201C159.444 121.696 159.573 120.129 159.701 118.571V118.571C159.732 118.189 159.764 117.807 159.787 117.426C160.122 112.078 158.899 106.64 156.31 101.966C155.996 101.401 155.663 100.845 155.33 100.289C154.542 98.9765 153.755 97.6643 153.234 96.2267C152.492 94.1804 152.367 91.747 153.571 89.9394C154.608 88.3817 156.358 87.6135 158.098 86.8495C158.663 86.6015 159.226 86.354 159.765 86.0801C162.493 84.6908 164.772 82.4121 166.178 79.6665C166.613 78.8155 166.973 77.8316 166.698 76.9142C166.424 75.9968 165.238 75.3451 164.486 75.9276C165.77 77.8919 164.83 80.6723 163.12 82.2706C161.768 83.5354 160.056 84.2805 158.352 85.0222C157.902 85.2179 157.453 85.4133 157.012 85.618C154.895 86.5983 152.753 87.9868 151.925 90.1884C151.739 90.6809 151.615 91.2161 151.492 91.7494C151.215 92.9459 150.941 94.1324 149.978 94.8025C148.595 95.7663 146.347 94.5926 146.32 92.8924L145.101 96.7724L144.491 98.7136C145.378 96.9708 147.397 95.8951 149.318 96.1419C152.35 96.5317 154.229 99.6357 155.382 102.502C157.608 108.031 158.837 113.97 158.991 119.938C159.075 123.204 155.091 124.726 151.915 125.308C150.707 123.401 149.13 121.735 147.3 120.432C145.526 119.169 142.954 121.175 142.794 123.364C142.634 125.553 143.957 127.535 145.188 129.342C146.419 131.148 147.671 133.209 147.347 135.379C147.038 137.44 145.397 138.992 143.859 140.377C138.289 145.395 132.509 151 130.952 158.383C129.625 164.669 131.613 171.133 133.578 177.246C127.904 174.839 123.39 169.784 121.594 163.827C119.799 157.87 120.756 151.124 124.135 145.92C124.073 146.96 125.308 147.686 126.317 147.483C127.326 147.279 128.098 146.472 128.757 145.673C137.157 135.493 137.717 119.49 130.051 108.734C130.736 108.509 131.421 108.283 132.106 108.058C131.549 107.692 131.791 106.723 132.38 106.411C132.968 106.098 133.682 106.24 134.324 106.416C141.137 108.276 147.085 113.166 150.282 119.536L151.883 118.674L152.181 124.117C153.288 122.082 153.542 119.59 152.87 117.369C152.238 116.736 151.001 116.97 150.637 117.79C146.799 110.507 139.146 105.436 131.018 104.79C131.258 105.771 130.351 106.731 129.371 106.922C128.392 107.112 127.398 106.758 126.461 106.41C131.665 111.678 134.642 119.13 134.518 126.58C134.394 134.03 131.171 141.377 125.795 146.464C126.248 145.616 125.137 144.613 124.205 144.814C123.273 145.015 122.655 145.894 122.186 146.733C116.693 156.571 120.244 170.515 129.75 176.436C130.217 176.728 130.7 177.005 131.185 177.284C132.961 178.306 134.754 179.337 135.83 181.058C130.645 183.811 124.738 183.138 118.765 182.457C113.894 181.901 108.981 181.341 104.379 182.629C103.262 182.942 101.922 183.888 102.378 184.967C107.494 182.508 113.371 183.146 119.209 183.78C125.542 184.468 131.828 185.15 137.046 181.87C136.645 184.493 136.575 187.833 138.902 189.058C139.989 189.63 141.289 189.517 142.509 189.39L150.374 188.57C152.205 188.379 153.2 186.019 152.591 184.26C151.983 182.501 150.31 181.346 148.613 180.624L152.706 178.652C151.85 180.648 154.336 182.364 156.358 183.102C157.684 183.586 159.01 184.07 160.336 184.554L160.338 184.554L162.292 185.268C164.571 186.1 167.039 186.94 169.367 186.261C171.148 185.741 172.704 184.16 172.783 182.285ZM147.368 139.361C149.134 143.451 152.89 146.602 157.188 147.598C158.532 147.909 160.39 148.914 159.666 150.102C158.025 150.307 156.384 150.512 154.742 150.717C153.64 150.854 152.477 151.016 151.604 151.711C150.73 152.406 150.32 153.828 151.056 154.671C149.077 153.954 147.506 152.18 147.017 150.11C145.754 152.978 148.961 155.956 152.013 156.516C153.168 156.728 154.359 156.769 155.546 156.81C157.494 156.878 159.432 156.946 161.18 157.765C160.106 162.326 155.53 165.762 150.908 165.481C146.285 165.2 142.15 161.233 141.622 156.575C140.28 158.696 141.545 161.578 143.356 163.304C144.086 163.999 144.9 164.603 145.712 165.205L145.713 165.205L145.713 165.205C146.918 166.099 148.12 166.99 149.037 168.173C151.576 171.453 151.079 176.72 147.973 179.454C147.169 180.162 147.607 181.564 148.412 182.271C148.787 182.6 149.22 182.853 149.653 183.105L149.653 183.105C150.149 183.394 150.644 183.683 151.05 184.086C151.811 184.842 152.065 186.334 151.146 186.881C150.015 187.555 148.827 186.11 148.283 184.901C148.637 186.061 147.905 187.441 146.755 187.784C145.605 188.127 144.25 187.368 143.926 186.2C143.709 185.414 143.243 184.163 142.614 184.673C143.521 185.96 142.717 188.075 141.193 188.415C139.669 188.754 138.062 187.177 138.351 185.624C138.781 183.312 137.524 181.106 136.346 179.037L136.346 179.036L136.338 179.023C136.237 178.845 136.136 178.669 136.037 178.493C132.083 171.467 130.402 162.708 133.375 155.202C136.011 148.547 141.806 143.8 147.368 139.361ZM167.085 155.184C167.607 155.507 168.316 155.945 168.631 156.299C171.143 159.119 167.247 165.503 163.481 163.209C162.644 167.678 161.219 172.035 159.253 176.126L159.246 176.142C159.019 176.615 158.782 177.108 158.793 177.633C158.805 178.164 159.167 178.729 159.69 178.762C160.402 178.807 161.192 178.834 162.02 178.862H162.02C166.152 179.003 171.224 179.177 172.067 181.797C172.023 182.161 171.831 182.505 171.545 182.731C171.416 182.356 170.867 182.219 170.581 182.491C170.996 183.074 170.908 183.965 170.388 184.453C169.867 184.942 168.983 184.962 168.44 184.499C168.232 184.32 168.04 184.076 167.851 183.834C167.434 183.3 167.029 182.783 166.479 183.036C166.893 183.507 166.887 184.298 166.465 184.762C166.044 185.227 165.266 185.3 164.768 184.922C161.991 182.817 158.445 182.123 155.035 181.485C153.94 181.281 154.01 179.666 154.394 178.609C155.946 174.334 157.977 170.238 160.437 166.425C161.415 164.911 162.183 163.03 162.326 161.344C162.474 159.597 162.461 156.669 160.689 156.484C161.596 154.431 164.813 153.344 166.503 154.802C166.593 154.88 166.814 155.016 167.084 155.183L167.085 155.184L167.085 155.184ZM151.692 166.691C151.858 166.678 152.023 166.665 152.187 166.649C155.655 166.311 158.927 164.291 160.813 161.324C160.996 163.796 159.533 165.838 158.044 167.916C156.905 169.505 155.751 171.115 155.305 172.955C154.961 174.375 153.983 175.536 153.035 176.639L151.235 178.733C150.731 178.49 150.976 177.727 151.242 177.229C152.969 174.004 152.185 169.614 149.453 167.205C150.122 166.813 150.912 166.752 151.692 166.691ZM156.493 152.078C156.97 151.814 157.445 151.55 157.979 151.49C159.063 151.367 160.157 152.266 160.262 153.365C160.366 154.464 159.461 155.558 158.374 155.646C156.186 155.823 153.969 155.635 151.841 155.09L152.021 154.442L152.025 154.424C152.134 154.032 152.242 153.64 152.351 153.248C152.539 152.567 153.272 151.726 153.739 152.253C154.25 152.831 155.182 152.725 155.878 152.4C156.086 152.303 156.29 152.19 156.493 152.078ZM181.584 150.405C180.722 153.936 181.848 155.302 182.412 152.35C184.591 140.967 194.186 131.427 205.467 129.429C204.915 128.469 203.528 128.569 202.468 128.856C192.394 131.581 184.085 140.156 181.584 150.405ZM162.341 153.889L161.486 153.402L161.519 153.339C161.098 152.559 160.83 151.694 160.735 150.81C161.808 151.517 163.026 152.795 162.341 153.889ZM165.437 124.917C165.824 122.964 166.214 120.998 167.874 120.137L168.671 123.061L169.265 125.239C168.22 126.68 167.798 128.569 168.128 130.326C167.191 129.41 166.002 128.76 164.731 128.47C165.642 129.651 166.566 130.859 167.066 132.269C167.566 133.679 167.578 135.352 166.732 136.581C166.628 136.732 166.721 136.935 166.806 137.097C167.784 138.948 167.651 141.348 166.475 143.077L166.49 143.102C166.63 143.334 166.671 143.402 166.25 144.123C166.15 145.277 164.665 145.722 163.537 145.527C163.217 145.471 162.896 145.389 162.575 145.306C161.764 145.096 160.954 144.887 160.167 145.122C160.716 146.083 161.668 146.801 162.735 147.056C158.968 147.862 155.139 145.931 152.13 143.5C150.566 142.235 149.077 140.755 148.358 138.865C147.25 135.951 148.365 132.335 150.913 130.576C151.641 130.074 151.258 128.922 150.76 128.186C150.054 127.141 149.175 126.111 147.972 125.764C146.769 125.418 145.223 126.081 145.049 127.335C144.577 125.765 144.325 124.127 144.303 122.487C144.299 122.171 144.31 121.83 144.496 121.576C144.886 121.044 145.712 121.237 146.294 121.54C148.78 122.834 150.68 125.233 151.388 127.971C151.632 128.917 152.311 130.211 153.158 129.741L152.592 127.515C152.531 127.273 152.472 127.007 152.577 126.782C152.682 126.558 152.92 126.437 153.144 126.336C154.459 125.746 155.847 125.324 157.266 125.084L157.57 126.351C159.111 126.415 160.641 126.724 162.09 127.263C161.449 127.915 162.413 129.109 163.301 128.92C164.19 128.732 164.713 127.798 164.977 126.918C165.166 126.285 165.302 125.602 165.437 124.917ZM149.343 129.421C149.199 129.374 149.055 129.328 148.907 129.35C148.542 129.407 148.407 129.799 148.271 130.191C148.136 130.583 148.001 130.975 147.636 131.032C146.663 129.949 146.326 128.321 146.786 126.934C148.179 126.949 149.523 127.852 150.081 129.143C150.132 129.375 149.824 129.528 149.593 129.489C149.509 129.475 149.426 129.448 149.343 129.421Z" fill="black"/>
<path fill-rule="evenodd" clip-rule="evenodd" d="M205.514 165.697C205.731 165.098 207.907 164.795 208.124 165.196C208.342 165.597 206.895 166.208 206.818 168.103C206.81 168.292 206.222 168.103 206.222 168.103C206.222 168.103 205.243 166.448 205.514 165.697Z" fill="#904402"/>
<path fill-rule="evenodd" clip-rule="evenodd" d="M160.862 156.975C160.862 156.975 161.111 156.488 161.583 155.956C162.089 155.386 162.867 154.776 163.935 154.754C164.559 154.74 165.27 154.95 166.105 155.465C166.517 155.719 166.959 156.042 167.425 156.459C168.712 157.542 168.852 159.064 168.375 160.392C167.849 161.858 166.611 163.122 165.191 163.39C164.944 163.433 163.796 163.408 162.868 162.885C162.469 162.66 162.131 162.323 161.928 161.899C161.813 161.658 161.777 161.381 161.784 161.069C161.762 160.778 161.511 160.56 161.224 160.582C160.938 160.605 160.723 160.86 160.746 161.151C160.903 162.096 161.419 162.723 162.087 163.156C162.374 163.342 162.679 163.499 162.99 163.626C163.994 164.037 165.041 164.134 165.298 164.1C167.012 163.89 168.606 162.49 169.326 160.773C170.05 159.046 169.88 157.022 168.233 155.509C167.695 155.043 167.191 154.674 166.71 154.404C165.615 153.787 164.665 153.614 163.868 153.7C162.934 153.801 162.196 154.239 161.651 154.776C160.75 155.661 160.374 156.769 160.374 156.769C160.318 156.906 160.382 157.063 160.516 157.12C160.651 157.177 160.806 157.112 160.862 156.975Z" fill="#904402"/>
<path fill-rule="evenodd" clip-rule="evenodd" d="M163.521 158.155C163.521 158.155 163.836 158.18 164.225 158.253C164.405 158.287 164.581 158.364 164.749 158.457C164.843 158.509 164.918 158.584 164.972 158.7C165.032 158.83 165.096 158.986 165.101 159.201C165.102 159.191 165.14 159.77 164.534 159.858C164.443 159.871 164.339 159.888 164.228 159.868C164.183 159.86 164.14 159.843 164.096 159.822C163.954 159.754 163.856 159.641 163.705 159.516C163.442 159.423 163.155 159.562 163.062 159.825C162.97 160.089 163.108 160.378 163.37 160.471C163.568 160.466 163.713 160.46 163.879 160.448C163.954 160.443 164.021 160.44 164.09 160.447C164.593 160.493 164.939 160.503 165.216 160.401C166.002 160.114 166.126 159.284 166.126 159.284C166.126 159.281 166.126 159.278 166.126 159.275C166.207 158.779 166.134 158.398 165.999 158.107C165.908 157.913 165.779 157.755 165.627 157.638C165.339 157.418 164.984 157.3 164.627 157.307C164.438 157.311 164.259 157.329 164.09 157.376C163.67 157.495 163.379 157.661 163.379 157.661C163.243 157.701 163.165 157.843 163.204 157.979C163.244 158.115 163.386 158.194 163.521 158.155Z" fill="#904402"/>
<path opacity="0.01" fill-rule="evenodd" clip-rule="evenodd" d="M194.676 169.936C194.676 169.936 194.857 170.048 195.256 170.142C195.378 170.171 195.502 170.169 195.656 170.165C195.761 170.163 195.869 170.141 195.983 170.109C196.084 170.08 196.187 170.036 196.286 169.977C196.396 169.914 196.502 169.839 196.604 169.745C196.92 169.454 197.101 169.017 197.456 168.538C197.484 168.501 197.517 168.474 197.557 168.448C197.674 168.373 197.743 168.347 197.874 168.278C198.015 168.026 197.924 167.708 197.673 167.567C197.421 167.427 197.103 167.517 196.963 167.769C196.97 167.918 197.029 168.006 196.982 168.136C196.946 168.237 196.853 168.301 196.78 168.368C196.538 168.593 196.272 168.677 196.035 168.777C195.951 168.813 195.868 168.83 195.791 168.861C195.71 168.894 195.631 168.92 195.561 168.954C195.408 169.027 195.299 169.117 195.183 169.174C194.894 169.315 194.76 169.413 194.76 169.413C194.616 169.389 194.48 169.488 194.457 169.632C194.433 169.777 194.532 169.913 194.676 169.936Z" fill="#904402"/>
</svg>
