<svg width="66" height="66" viewBox="0 0 66 66" fill="none" xmlns="http://www.w3.org/2000/svg">
<rect width="66" height="66" fill="#C4C4C4"/>
<path d="M23.89 17.3794C16.45 16.7794 14.89 21.5094 13.5 24.2894C11.64 27.9994 11.64 30.0594 16.2 30.6794C20.76 31.2994 22.09 30.2694 23.71 31.5794C25.33 32.8894 25.17 36.3694 24.02 40.5794C22.87 44.7894 23.48 49.6894 27.8 52.2394C32.12 54.7894 36.6 55.3994 42.62 54.7094C48.64 54.0194 53 50.3094 54 41.9994C55 33.6894 51.53 33.5594 50.88 27.3594C50.27 21.4794 53.69 18.5894 49.42 16.2494C46 14.3794 41.69 18.8494 41.77 24.4794C41.85 30.1094 46.17 31.4794 47.55 37.2194C48.93 42.9594 46.47 48.9994 44.54 48.9994C45.16 46.6794 46.71 40.0594 43.85 35.5394C40.99 31.0194 35.51 29.4994 33 26.7194C30.49 23.9394 28.43 17.7494 23.89 17.3794Z" fill="#DEBB7E"/>
<path d="M41.89 25.9993C42.61 21.2493 46.4 17.8693 49.41 19.5193C50.2842 19.9004 50.9935 20.5813 51.41 21.4393C51.82 19.2093 51.95 17.6593 49.41 16.2993C46 14.4193 41.69 18.8893 41.77 24.5193C41.7707 25.015 41.8108 25.5099 41.89 25.9993V25.9993Z" fill="#F0D5A8"/>
<path d="M13.5 27.5492C14.89 24.7692 16.5 20.0392 23.89 20.6492C28.43 20.9992 30.42 27.2092 33 29.9992C35.58 32.7892 41 34.3292 43.88 38.8492C44.8045 40.417 45.3427 42.1823 45.45 43.9992C45.8122 41.1135 45.2522 38.1872 43.85 35.6392C41 31.0792 35.51 29.5392 33 26.7592C30.49 23.9792 28.46 17.7592 23.92 17.4192C16.48 16.8192 14.92 21.5492 13.53 24.3292C12.42 26.5392 11.97 28.1692 12.77 29.2592C12.978 28.6748 13.2218 28.1037 13.5 27.5492V27.5492Z" fill="#F0D5A8"/>
<path d="M23.89 17.3794C16.45 16.7794 14.89 21.5094 13.5 24.2894C11.64 27.9994 11.64 30.0594 16.2 30.6794C20.76 31.2994 22.09 30.2694 23.71 31.5794C25.33 32.8894 25.17 36.3694 24.02 40.5794C22.87 44.7894 23.48 49.6894 27.8 52.2394C32.12 54.7894 36.6 55.3994 42.62 54.7094C48.64 54.0194 53 50.3094 54 41.9994C55 33.6894 51.53 33.5594 50.88 27.3594C50.27 21.4794 53.69 18.5894 49.42 16.2494C46 14.3794 41.69 18.8494 41.77 24.4794C41.85 30.1094 46.17 31.4794 47.55 37.2194C48.93 42.9594 46.47 48.9994 44.54 48.9994C45.16 46.6794 46.71 40.0594 43.85 35.5394C40.99 31.0194 35.51 29.4994 33 26.7194C30.49 23.9394 28.43 17.7494 23.89 17.3794Z" stroke="#45413C" stroke-linecap="round" stroke-linejoin="round"/>
<path d="M29.26 44.6996C26.48 41.6996 28.72 39.4596 28.57 35.9996C28.42 32.5396 25.17 29.1896 23.57 27.6496C21.97 26.1096 23.65 22.9396 20.25 20.9296C18.09 19.6596 15.85 21.4496 14.15 22.9796L13.5 24.2896C11.64 27.9996 11.64 30.0596 16.2 30.6796C20.76 31.2996 22.09 30.2696 23.71 31.5796C25.33 32.8896 25.17 36.3696 24.02 40.5796C22.87 44.7896 23.48 49.6896 27.8 52.2396C29.1939 53.0651 30.6855 53.7135 32.24 54.1696C31.82 50.9996 31 46.5396 29.26 44.6996Z" fill="#F7E5C6"/>
<path d="M19.41 29.0994C21.35 29.2094 23.41 29.3594 25.48 29.6594C24.77 28.8394 24.08 28.1494 23.55 27.6594C21.93 26.1094 23.63 22.9494 20.23 20.9394C18.07 19.6694 15.83 21.4594 14.13 22.9894L13.5 24.2894C12.9568 25.2648 12.5752 26.3219 12.37 27.4194C14.566 28.4863 16.9689 29.0598 19.41 29.0994V29.0994Z" fill="#FFF5E3"/>
<path d="M29.26 44.6996C26.48 41.6996 28.72 39.4596 28.57 35.9996C28.42 32.5396 25.17 29.1896 23.57 27.6496C21.97 26.1096 23.65 22.9396 20.25 20.9296C18.09 19.6596 15.85 21.4496 14.15 22.9796L13.5 24.2896C11.64 27.9996 11.64 30.0596 16.2 30.6796C20.76 31.2996 22.09 30.2696 23.71 31.5796C25.33 32.8896 25.17 36.3696 24.02 40.5796C22.87 44.7896 23.48 49.6896 27.8 52.2396C29.1939 53.0651 30.6855 53.7135 32.24 54.1696C31.82 50.9996 31 46.5396 29.26 44.6996Z" stroke="#45413C" stroke-linecap="round" stroke-linejoin="round"/>
<path d="M17.44 41.85L16.82 42.61C16.6641 42.8023 16.4533 42.9426 16.2158 43.0122C15.9782 43.0819 15.7251 43.0776 15.49 43L14.57 42.68C13.9001 42.4553 13.3109 42.039 12.8754 41.4826C12.4399 40.9262 12.1773 40.2543 12.12 39.55L11.92 37.17L16.76 35.79L17.85 37.9C18.1728 38.5271 18.3059 39.2346 18.2331 39.9361C18.1603 40.6376 17.8847 41.3026 17.44 41.85V41.85Z" fill="#BF8256"/>
<path d="M17.85 37.8996L16.93 36.0996L12 37.5296L12.17 39.5296C12.1598 39.6461 12.1598 39.7632 12.17 39.8796L18 38.2196C17.9561 38.1102 17.906 38.0034 17.85 37.8996Z" fill="#915E3A"/>
<path d="M17.44 41.85L16.82 42.61C16.6641 42.8023 16.4533 42.9426 16.2158 43.0122C15.9782 43.0819 15.7251 43.0776 15.49 43L14.57 42.68C13.9001 42.4553 13.3109 42.039 12.8754 41.4826C12.4399 40.9262 12.1773 40.2543 12.12 39.55L11.92 37.17L16.76 35.79L17.85 37.9C18.1728 38.5271 18.3059 39.2346 18.2331 39.9361C18.1603 40.6376 17.8847 41.3026 17.44 41.85V41.85Z" stroke="#45413C" stroke-linecap="round" stroke-linejoin="round"/>
<path d="M17 35.4095C16.84 35.0582 16.5591 34.7761 16.2085 34.6145C15.8579 34.453 15.461 34.4228 15.09 34.5295L12.66 35.2295C12.2884 35.3384 11.9681 35.5768 11.7572 35.9015C11.5462 36.2262 11.4585 36.6157 11.51 36.9995C11.5222 37.0892 11.5536 37.1752 11.6021 37.2517C11.6506 37.3282 11.715 37.3933 11.7909 37.4427C11.8668 37.492 11.9525 37.5245 12.0421 37.5377C12.1317 37.5509 12.223 37.5447 12.31 37.5195L16.61 36.2795C16.6977 36.255 16.7788 36.2115 16.8478 36.1522C16.9168 36.0928 16.9718 36.019 17.009 35.9359C17.0462 35.8529 17.0647 35.7627 17.0632 35.6717C17.0616 35.5807 17.0401 35.4912 17 35.4095V35.4095Z" fill="#DEBB7E" stroke="#45413C" stroke-linecap="round" stroke-linejoin="round"/>
<path d="M13.88 34.88L13.5 33.54" stroke="#45413C" stroke-linecap="round" stroke-linejoin="round"/>
<path opacity="0.15" d="M33 57.9998C42.8914 57.9998 50.91 57.1715 50.91 56.1498C50.91 55.1281 42.8914 54.2998 33 54.2998C23.1086 54.2998 15.09 55.1281 15.09 56.1498C15.09 57.1715 23.1086 57.9998 33 57.9998Z" fill="#45413C"/>
<path d="M28.73 52.2397C28.73 52.2397 23.63 46.2397 27.87 41.8497C32.11 37.4597 39.87 40.5397 40.3 46.9397C40.66 52.8597 38.37 54.9997 38.37 54.9997H22.09C22.09 54.9997 21.47 53.1897 22.78 52.2697C24.09 51.3497 28.73 52.2397 28.73 52.2397Z" fill="#DEBB7E"/>
<path d="M27.87 45.1093C32.04 40.8092 39.57 43.6692 40.26 49.7792C40.332 48.8339 40.332 47.8845 40.26 46.9392C39.87 40.5392 32.1 37.4492 27.83 41.8492C27.0989 42.6009 26.5775 43.531 26.3179 44.5469C26.0582 45.5628 26.0693 46.629 26.35 47.6392C26.6337 46.6806 27.1568 45.8099 27.87 45.1093Z" fill="#F0D5A8"/>
<path d="M28.73 52.2397C28.73 52.2397 23.63 46.2397 27.87 41.8497C32.11 37.4597 39.87 40.5397 40.3 46.9397C40.66 52.8597 38.37 54.9997 38.37 54.9997H22.09C22.09 54.9997 21.47 53.1897 22.78 52.2697C24.09 51.3497 28.73 52.2397 28.73 52.2397Z" stroke="#45413C" stroke-linecap="round" stroke-linejoin="round"/>
<path d="M27.26 30.2695C23.75 32.2695 23.26 34.7395 20.26 35.8195C17.26 36.8995 17 35.9995 15.68 36.9995C14.36 37.9995 14.29 39.9295 15.68 40.3095C17.07 40.6895 18.92 39.3095 21.24 39.3895C23.56 39.4695 28.85 40.3295 31.14 35.5795" fill="#DEBB7E"/>
<path d="M27.26 30.2695C23.75 32.2695 23.26 34.7395 20.26 35.8195C17.26 36.8995 17 35.9995 15.68 36.9995C14.36 37.9995 14.29 39.9295 15.68 40.3095C17.07 40.6895 18.92 39.3095 21.24 39.3895C23.56 39.4695 28.85 40.3295 31.14 35.5795" stroke="#45413C" stroke-linecap="round" stroke-linejoin="round"/>
<path d="M21.94 19.0597C22.27 18.6697 22.22 14.1397 24.94 14.5197C27.66 14.8997 27.17 17.8897 25.94 18.9597" fill="#F0D5A8"/>
<path d="M21.94 19.0597C22.27 18.6697 22.22 14.1397 24.94 14.5197C27.66 14.8997 27.17 17.8897 25.94 18.9597" stroke="#45413C" stroke-linecap="round" stroke-linejoin="round"/>
<path d="M18.92 23.8695C18.92 24.0539 18.8652 24.2341 18.7626 24.3872C18.6599 24.5404 18.5141 24.6595 18.3436 24.7296C18.173 24.7997 17.9855 24.8175 17.8049 24.7808C17.6242 24.7441 17.4585 24.6546 17.3289 24.5235C17.1992 24.3924 17.1114 24.2258 17.0767 24.0447C17.0419 23.8637 17.0618 23.6764 17.1337 23.5066C17.2056 23.3369 17.3264 23.1923 17.4806 23.0914C17.6349 22.9904 17.8157 22.9375 18 22.9395C18.1217 22.9395 18.2421 22.9636 18.3544 23.0105C18.4667 23.0573 18.5686 23.126 18.6541 23.2125C18.7397 23.299 18.8072 23.4016 18.8529 23.5144C18.8985 23.6271 18.9213 23.7479 18.92 23.8695Z" fill="#45413C"/>
<path d="M28.57 24.29C28.57 24.29 29.19 28.57 34.51 31.35C39.83 34.13 42.69 36.6 42.77 44.09" stroke="#915E3A" stroke-linecap="round" stroke-linejoin="round"/>
<path d="M34.67 34.1895C35.8632 34.7145 36.9328 35.4843 37.8097 36.449C38.6865 37.4136 39.3509 38.5517 39.76 39.7895" stroke="#915E3A" stroke-linecap="round" stroke-linejoin="round"/>
<path d="M15.36 27.5696C15.49 28.1496 14.86 28.7896 13.79 29.0296C12.72 29.2696 12.46 28.8396 12.33 28.2496C12.2 27.6596 12.24 27.1696 13.33 26.9196C14.42 26.6696 15.23 26.9996 15.36 27.5696Z" fill="#915E3A" stroke="#45413C" stroke-linecap="round" stroke-linejoin="round"/>
</svg>
