<svg width="25" height="25" viewBox="0 0 25 25" fill="none" xmlns="http://www.w3.org/2000/svg">
<path fill-rule="evenodd" clip-rule="evenodd" d="M22.7279 20.7277C23.103 20.3526 23.3137 19.8439 23.3137 19.3135V8.31348C23.3137 7.78304 23.103 7.27434 22.7279 6.89926C22.3529 6.52419 21.8442 6.31348 21.3137 6.31348H17.3137L15.3137 3.31348H9.31372L7.31372 6.31348H3.31372C2.78329 6.31348 2.27458 6.52419 1.89951 6.89926C1.52443 7.27434 1.31372 7.78304 1.31372 8.31348V19.3135C1.31372 19.8439 1.52443 20.3526 1.89951 20.7277C2.27458 21.1028 2.78329 21.3135 3.31372 21.3135H21.3137C21.8442 21.3135 22.3529 21.1028 22.7279 20.7277ZM9.81372 13.3135C9.81372 11.9328 10.933 10.8135 12.3137 10.8135C13.6944 10.8135 14.8137 11.9328 14.8137 13.3135C14.8137 14.6942 13.6944 15.8135 12.3137 15.8135C10.933 15.8135 9.81372 14.6942 9.81372 13.3135ZM12.3137 7.81348C9.27615 7.81348 6.81372 10.2759 6.81372 13.3135C6.81372 16.351 9.27615 18.8135 12.3137 18.8135C15.3513 18.8135 17.8137 16.351 17.8137 13.3135C17.8137 10.2759 15.3513 7.81348 12.3137 7.81348Z" fill="black"/>
</svg>
