<svg xmlns="http://www.w3.org/2000/svg" width="24" height="24" fill="none" viewBox="0 0 24 24">
    <path stroke="#8A8894" stroke-linecap="round" stroke-linejoin="round" stroke-width="2" d="M22.54 6.42c-.119-.475-.36-.91-.701-1.26-.34-.352-.768-.607-1.239-.74C18.88 4 12 4 12 4s-6.88 0-8.6.46c-.47.133-.898.388-1.239.74-.34.35-.582.785-.7 1.26C1.144 8.206.99 9.976 1 11.75c-.012 1.787.142 3.571.46 5.33.13.46.377.878.717 1.215.34.336.76.579 1.222.705 1.72.46 8.6.46 8.6.46s6.88 0 8.6-.46c.47-.133.898-.388 1.239-.74.34-.35.582-.785.701-1.26.312-1.732.466-3.49.46-5.25.011-1.787-.143-3.571-.46-5.33v0z"/>
    <path stroke="#8A8894" stroke-linecap="round" stroke-linejoin="round" stroke-width="2" d="M9.75 15.02l5.75-3.27-5.75-3.27v6.54z"/>
</svg>
